<svg width="18" height="18" viewBox="0 0 18 18" fill="none" xmlns="http://www.w3.org/2000/svg">
<path d="M4.07242 7.813L2.01442 9.871C1.17043 10.715 0.696289 11.8597 0.696289 13.0532C0.696289 14.2468 1.17043 15.3915 2.01442 16.2355C2.85841 17.0795 4.00309 17.5536 5.19667 17.5536C6.39025 17.5536 7.53493 17.0795 8.37892 16.2355L11.1209 13.492C11.6299 12.983 12.0093 12.3593 12.2273 11.6733C12.4453 10.9873 12.4956 10.259 12.374 9.5496C12.2523 8.84016 11.9622 8.17025 11.5281 7.59611C11.0939 7.02197 10.5284 6.56035 9.87892 6.25L8.99992 7.129C8.91068 7.2184 8.83307 7.31869 8.76892 7.4275C9.27071 7.57175 9.72617 7.84447 10.0903 8.21869C10.4544 8.5929 10.7145 9.05566 10.8449 9.56122C10.9754 10.0668 10.9716 10.5976 10.834 11.1013C10.6964 11.6049 10.4298 12.064 10.0604 12.433L7.31992 15.175C6.757 15.7379 5.99351 16.0542 5.19742 16.0542C4.40133 16.0542 3.63784 15.7379 3.07492 15.175C2.512 14.6121 2.19575 13.8486 2.19575 13.0525C2.19575 12.2564 2.512 11.4929 3.07492 10.93L4.26442 9.742C4.09659 9.11309 4.03175 8.46115 4.07242 7.8115V7.813Z" fill="#7D7882"/>
<path d="M6.87932 5.0074C6.37037 5.51641 5.99096 6.14009 5.77293 6.82608C5.5549 7.51206 5.50461 8.24035 5.62628 8.94979C5.74795 9.65924 6.03803 10.3291 6.47217 10.9033C6.90632 11.4774 7.47185 11.939 8.12132 12.2494L9.28382 11.0854C8.77524 10.949 8.31152 10.6811 7.93927 10.3087C7.56702 9.93629 7.29934 9.47246 7.16313 8.96383C7.02693 8.45519 7.027 7.91967 7.16333 7.41107C7.29967 6.90247 7.56747 6.43871 7.93982 6.0664L10.6803 3.3244C11.2432 2.76147 12.0067 2.44523 12.8028 2.44523C13.5989 2.44523 14.3624 2.76147 14.9253 3.3244C15.4882 3.88732 15.8045 4.6508 15.8045 5.4469C15.8045 6.24299 15.4882 7.00647 14.9253 7.5694L13.7358 8.7574C13.9038 9.3874 13.9683 10.0399 13.9278 10.6879L15.9858 8.6299C16.8298 7.78591 17.3039 6.64122 17.3039 5.44765C17.3039 4.25407 16.8298 3.10938 15.9858 2.2654C15.1418 1.42141 13.9971 0.947266 12.8036 0.947266C11.61 0.947266 10.4653 1.42141 9.62132 2.2654L6.87932 5.0074Z" fill="#7D7882"/>
</svg>
