<svg width="23" height="23" viewBox="0 0 23 23" fill="none" xmlns="http://www.w3.org/2000/svg">
<path d="M5.19113 14.9404C6.77489 14.9404 8.05878 13.6565 8.05878 12.0727C8.05878 10.489 6.77489 9.20508 5.19113 9.20508C3.60738 9.20508 2.32349 10.489 2.32349 12.0727C2.32349 13.6565 3.60738 14.9404 5.19113 14.9404Z" stroke="black" stroke-linecap="round" stroke-linejoin="round"/>
<path d="M15.5146 20.6767C17.0984 20.6767 18.3823 19.3928 18.3823 17.8091C18.3823 16.2253 17.0984 14.9414 15.5146 14.9414C13.9309 14.9414 12.647 16.2253 12.647 17.8091C12.647 19.3928 13.9309 20.6767 15.5146 20.6767Z" stroke="black" stroke-linecap="round" stroke-linejoin="round"/>
<path d="M15.5146 8.05951C17.0984 8.05951 18.3823 6.77562 18.3823 5.19187C18.3823 3.60811 17.0984 2.32422 15.5146 2.32422C13.9309 2.32422 12.647 3.60811 12.647 5.19187C12.647 6.77562 13.9309 8.05951 15.5146 8.05951Z" stroke="black" stroke-linecap="round" stroke-linejoin="round"/>
<path d="M13.7941 6.91211L8.05884 10.3533" stroke="black" stroke-linecap="round" stroke-linejoin="round"/>
<path d="M8.05884 12.6465L13.7941 16.0877" stroke="black" stroke-linecap="round" stroke-linejoin="round"/>
</svg>
