<svg width="24" height="20" viewBox="0 0 24 20" fill="none" xmlns="http://www.w3.org/2000/svg">
<path d="M23.9523 2.57011C23.054 2.96499 22.1026 3.22578 21.1285 3.34411C22.1553 2.72784 22.924 1.76037 23.2923 0.620864C22.3211 1.18412 21.2641 1.58418 20.1633 1.80511C19.4231 1.01421 18.4425 0.489707 17.3738 0.312987C16.305 0.136268 15.2078 0.31721 14.2524 0.82774C13.297 1.33827 12.5368 2.14985 12.0897 3.13655C11.6426 4.12326 11.5337 5.22993 11.7798 6.28486C7.69005 6.09361 4.06455 4.12861 1.6398 1.16011C1.1984 1.91078 0.967553 2.76656 0.971547 3.63736C0.970945 4.44689 1.17025 5.24403 1.55178 5.95801C1.9333 6.67199 2.48523 7.28071 3.15855 7.73011C2.37827 7.70653 1.61498 7.49642 0.932547 7.11736V7.17661C0.932309 8.31288 1.32495 9.41428 2.04394 10.2941C2.76292 11.174 3.76401 11.7782 4.87755 12.0044C4.45574 12.1171 4.02115 12.1748 3.58455 12.1761C3.2688 12.1761 2.9673 12.1454 2.66655 12.0899C2.98344 13.0677 3.5973 13.9223 4.42268 14.5349C5.24805 15.1475 6.24388 15.4875 7.27155 15.5076C5.53035 16.8712 3.38189 17.611 1.1703 17.6084C0.778576 17.6099 0.387118 17.5879 -0.00195312 17.5424C2.25411 18.988 4.87782 19.7554 7.5573 19.7534C16.6075 19.7534 21.553 12.2571 21.553 5.76511C21.553 5.55811 21.553 5.34736 21.5373 5.13586C22.5047 4.44252 23.3384 3.57958 23.998 2.58886L23.9523 2.57011Z" fill="#1DA1F2"/>
</svg>
