<svg width="24" height="20" viewBox="0 0 24 20" fill="none" xmlns="http://www.w3.org/2000/svg">
<path d="M23.9528 2.57011C23.0545 2.96499 22.1031 3.22578 21.129 3.34411C22.1558 2.72784 22.9245 1.76037 23.2928 0.620864C22.3216 1.18412 21.2645 1.58418 20.1638 1.80511C19.4236 1.01421 18.443 0.489707 17.3743 0.312987C16.3055 0.136268 15.2083 0.31721 14.2529 0.82774C13.2975 1.33827 12.5373 2.14985 12.0902 3.13655C11.6431 4.12326 11.5342 5.22993 11.7803 6.28486C7.69053 6.09361 4.06504 4.12861 1.64029 1.16011C1.19889 1.91078 0.968041 2.76656 0.972035 3.63736C0.971434 4.44689 1.17074 5.24403 1.55227 5.95801C1.93379 6.67199 2.48571 7.28071 3.15903 7.73011C2.37875 7.70653 1.61547 7.49642 0.933035 7.11736V7.17661C0.932797 8.31288 1.32544 9.41428 2.04443 10.2941C2.76341 11.174 3.7645 11.7782 4.87804 12.0044C4.45623 12.1171 4.02163 12.1748 3.58504 12.1761C3.26929 12.1761 2.96779 12.1454 2.66704 12.0899C2.98393 13.0677 3.59779 13.9223 4.42317 14.5349C5.24854 15.1475 6.24437 15.4875 7.27204 15.5076C5.53084 16.8712 3.38238 17.611 1.17079 17.6084C0.779065 17.6099 0.387606 17.5879 -0.00146484 17.5424C2.2546 18.988 4.87831 19.7554 7.55779 19.7534C16.608 19.7534 21.5535 12.2571 21.5535 5.76511C21.5535 5.55811 21.5535 5.34736 21.5378 5.13586C22.5052 4.44252 23.3389 3.57958 23.9985 2.58886L23.9528 2.57011Z" fill="white"/>
</svg>
