<svg width="14" height="14" viewBox="0 0 14 14" fill="none" xmlns="http://www.w3.org/2000/svg">
<path d="M7 7.00002C8.61083 7.00002 9.91666 5.69418 9.91666 4.08335C9.91666 2.47252 8.61083 1.16669 7 1.16669C5.38916 1.16669 4.08333 2.47252 4.08333 4.08335C4.08333 5.69418 5.38916 7.00002 7 7.00002Z" stroke="#7D7882"/>
<path d="M9.91668 8.16669H10.122C10.5485 8.16681 10.9602 8.32265 11.2799 8.60493C11.5995 8.88722 11.8051 9.27652 11.858 9.69969L12.0861 11.522C12.1066 11.6862 12.092 11.8528 12.0432 12.0109C11.9943 12.169 11.9125 12.3149 11.803 12.4389C11.6935 12.5629 11.5588 12.6622 11.408 12.7302C11.2572 12.7982 11.0936 12.8334 10.9282 12.8334H3.07184C2.9064 12.8334 2.74284 12.7982 2.59202 12.7302C2.4412 12.6622 2.30657 12.5629 2.19706 12.4389C2.08756 12.3149 2.00568 12.169 1.95686 12.0109C1.90805 11.8528 1.89341 11.6862 1.91393 11.522L2.14143 9.69969C2.19433 9.27632 2.40009 8.88686 2.72 8.60455C3.0399 8.32224 3.45193 8.16652 3.87859 8.16669H4.08334" stroke="#7D7882" stroke-linecap="round" stroke-linejoin="round"/>
</svg>
