<svg width="18" height="13" viewBox="0 0 18 13" fill="none" xmlns="http://www.w3.org/2000/svg">
<path d="M0 2.0625C0 1.51549 0.217299 0.990886 0.604092 0.604092C0.990886 0.217298 1.51549 0 2.0625 0H15.9375C16.4845 0 17.0091 0.217298 17.3959 0.604092C17.7827 0.990886 18 1.51549 18 2.0625V3.75H0V2.0625Z" fill="#808080"/>
<path d="M0 4.875H18V10.6875C18 11.2345 17.7827 11.7591 17.3959 12.1459C17.0091 12.5327 16.4845 12.75 15.9375 12.75H2.0625C1.51549 12.75 0.990886 12.5327 0.604092 12.1459C0.217299 11.7591 0 11.2345 0 10.6875V4.875ZM12.375 8.55C12.196 8.55 12.0243 8.62112 11.8977 8.7477C11.7711 8.87429 11.7 9.04598 11.7 9.225C11.7 9.40402 11.7711 9.57571 11.8977 9.7023C12.0243 9.82888 12.196 9.9 12.375 9.9H14.625C14.804 9.9 14.9757 9.82888 15.1023 9.7023C15.2289 9.57571 15.3 9.40402 15.3 9.225C15.3 9.04598 15.2289 8.87429 15.1023 8.7477C14.9757 8.62112 14.804 8.55 14.625 8.55H12.375Z" fill="#808080"/>
</svg>
