<svg width="22" height="19" viewBox="0 0 22 19" fill="none" xmlns="http://www.w3.org/2000/svg">
<path d="M20.6961 13.4039H6.73906L7.43984 11.9766L19.0836 11.9555C19.4773 11.9555 19.8148 11.6742 19.8852 11.2852L21.4977 2.25937C21.5398 2.02266 21.4766 1.77891 21.3219 1.59375C21.2454 1.50263 21.1501 1.42922 21.0424 1.37863C20.9348 1.32804 20.8174 1.30148 20.6984 1.30078L5.88594 1.25156L5.75937 0.65625C5.67969 0.276562 5.3375 0 4.94844 0H1.32734C1.10792 0 0.89748 0.0871662 0.742323 0.242323C0.587166 0.39748 0.5 0.607919 0.5 0.827344C0.5 1.04677 0.587166 1.25721 0.742323 1.41236C0.89748 1.56752 1.10792 1.65469 1.32734 1.65469H4.27812L4.83125 4.28437L6.19297 10.8773L4.43984 13.7391C4.3488 13.8619 4.29396 14.0078 4.28154 14.1603C4.26911 14.3127 4.29959 14.4656 4.36953 14.6016C4.51016 14.8805 4.79375 15.0563 5.10781 15.0563H6.57969C6.2659 15.473 6.09641 15.9807 6.09687 16.5023C6.09687 17.8289 7.175 18.907 8.50156 18.907C9.82812 18.907 10.9062 17.8289 10.9062 16.5023C10.9062 15.9797 10.7328 15.4711 10.4234 15.0563H14.1992C13.8854 15.473 13.7159 15.9807 13.7164 16.5023C13.7164 17.8289 14.7945 18.907 16.1211 18.907C17.4477 18.907 18.5258 17.8289 18.5258 16.5023C18.5258 15.9797 18.3523 15.4711 18.043 15.0563H20.6984C21.1531 15.0563 21.5258 14.6859 21.5258 14.2289C21.5244 14.0097 21.4364 13.8 21.281 13.6454C21.1255 13.4908 20.9153 13.404 20.6961 13.4039ZM6.23047 2.88281L19.7258 2.92734L18.4039 10.3289L7.80312 10.3477L6.23047 2.88281ZM8.50156 17.243C8.09375 17.243 7.76094 16.9102 7.76094 16.5023C7.76094 16.0945 8.09375 15.7617 8.50156 15.7617C8.90937 15.7617 9.24219 16.0945 9.24219 16.5023C9.24219 16.6988 9.16416 16.8871 9.02526 17.026C8.88637 17.1649 8.69799 17.243 8.50156 17.243ZM16.1211 17.243C15.7133 17.243 15.3805 16.9102 15.3805 16.5023C15.3805 16.0945 15.7133 15.7617 16.1211 15.7617C16.5289 15.7617 16.8617 16.0945 16.8617 16.5023C16.8617 16.6988 16.7837 16.8871 16.6448 17.026C16.5059 17.1649 16.3175 17.243 16.1211 17.243Z" fill="#403946"/>
</svg>
