<svg width="20" height="25" viewBox="0 0 20 25" fill="none" xmlns="http://www.w3.org/2000/svg">
<path fill-rule="evenodd" clip-rule="evenodd" d="M7.00001 7V9.5H11V7H15L9.00001 0L3.00001 7H7.00001ZM0 10.9993L3 16.9993H14L13.5 17.9993H3.5V19.9993H15L18 10.4993H20V8.49935H16.5L15.5 11.4993H1.5L0 10.9993ZM7.00001 22.9993C7.00001 24.1039 6.10458 24.9993 5.00001 24.9993C3.89544 24.9993 3.00001 24.1039 3.00001 22.9993C3.00001 21.8948 3.89544 20.9993 5.00001 20.9993C6.10458 20.9993 7.00001 21.8948 7.00001 22.9993ZM14 24.9993C15.1046 24.9993 16 24.1039 16 22.9993C16 21.8948 15.1046 20.9993 14 20.9993C12.8954 20.9993 12 21.8948 12 22.9993C12 24.1039 12.8954 24.9993 14 24.9993Z" fill="#808080"/>
</svg>
