<svg width="20" height="20" viewBox="0 0 20 20" fill="none" xmlns="http://www.w3.org/2000/svg">
<path d="M3.55469 14.1016V17.6172H16.4453V14.1016H3.55469Z" fill="#FF9F00"/>
<path d="M10 14.1016H16.4453V17.6172H10V14.1016Z" fill="#FF7816"/>
<path d="M16.5039 8.99216L15.5547 10.8437H4.44534L3.49609 8.99216C4.89059 7.05856 7.31644 5.89844 10 5.89844C12.6836 5.89844 15.1094 7.05856 16.5039 8.99216Z" fill="#FF4B00"/>
<path d="M16.5039 8.99216L15.5547 10.8437H10V5.89844C12.6836 5.89844 15.1094 7.05856 16.5039 8.99216Z" fill="#CC1E0D"/>
<path d="M18.6368 7.82028L16.4454 15.2734H3.55475L1.36328 7.82028L2.83987 7.25784C3.5079 8.53516 4.78522 9.28512 5.82816 9.41406H6.43759C7.78525 9.20318 8.79294 7.14065 9.20325 5.17181H10.797C11.2072 7.14065 12.215 9.20318 13.5625 9.41406H14.172C15.2149 9.28512 16.4922 8.53516 17.1602 7.25784L18.6368 7.82028Z" fill="#FDBF00"/>
<path d="M18.6368 7.82028L16.4453 15.2734H10V5.17181H10.7968C11.2071 7.14065 12.2148 9.20318 13.5625 9.41406H14.1719C15.2148 9.28512 16.4922 8.53516 17.1602 7.25784L18.6368 7.82028Z" fill="#FF9F00"/>
<path d="M1.79688 8.24219C0.827637 8.24219 0 7.45361 0 6.48438C0 5.51514 0.827637 4.72656 1.79688 4.72656C2.76611 4.72656 3.55469 5.51514 3.55469 6.48438C3.55469 7.45361 2.76611 8.24219 1.79688 8.24219Z" fill="#FF9F00"/>
<path d="M18.2031 8.24219C17.2339 8.24219 16.4453 7.45361 16.4453 6.48438C16.4453 5.51514 17.2339 4.72656 18.2031 4.72656C19.1724 4.72656 20 5.51514 20 6.48438C20 7.45361 19.1724 8.24219 18.2031 8.24219Z" fill="#FF7816"/>
<path d="M10 2.38281C9.02725 2.38281 8.24219 3.16788 8.24219 4.14062C8.24219 5.11322 9.02725 5.89844 10 5.89844C10.9727 5.89844 11.7578 5.11322 11.7578 4.14062C11.7578 3.16788 10.9727 2.38281 10 2.38281Z" fill="#FF9F00"/>
<path d="M10 9.16797L7.99609 11.1719L10 13.1758L12.004 11.1719L10 9.16797Z" fill="#FF4B00"/>
<path d="M13.5156 11.5151L14.3441 12.3436L13.5156 13.1722L12.687 12.3436L13.5156 11.5151Z" fill="#CC1E0D"/>
<path d="M6.48431 11.5151L7.31287 12.3436L6.48431 13.1722L5.65576 12.3436L6.48431 11.5151Z" fill="#FF4B00"/>
<path d="M10 5.89844V2.38281C10.9727 2.38281 11.7578 3.16788 11.7578 4.14062C11.7578 5.11322 10.9727 5.89844 10 5.89844Z" fill="#FF7816"/>
<path d="M12.0039 11.1719L10 13.1758V9.16797L12.0039 11.1719Z" fill="#CC1E0D"/>
</svg>
