<svg width="16" height="16" viewBox="0 0 16 16" fill="none" xmlns="http://www.w3.org/2000/svg">
<path d="M8 1.33331C6.68146 1.33331 5.39253 1.72431 4.2962 2.45685C3.19987 3.18939 2.34539 4.23058 1.8408 5.44876C1.33622 6.66693 1.2042 8.00737 1.46143 9.30058C1.71867 10.5938 2.35361 11.7817 3.28596 12.714C4.21831 13.6464 5.40619 14.2813 6.6994 14.5385C7.99261 14.7958 9.33305 14.6638 10.5512 14.1592C11.7694 13.6546 12.8106 12.8001 13.5431 11.7038C14.2757 10.6075 14.6667 9.31852 14.6667 7.99998C14.6667 7.1245 14.4942 6.25759 14.1592 5.44876C13.8242 4.63992 13.3331 3.90499 12.714 3.28593C12.095 2.66688 11.3601 2.17581 10.5512 1.84078C9.74239 1.50575 8.87548 1.33331 8 1.33331ZM8 13.3333C6.94517 13.3333 5.91402 13.0205 5.03696 12.4345C4.1599 11.8484 3.47631 11.0155 3.07264 10.041C2.66898 9.06642 2.56336 7.99406 2.76915 6.9595C2.97493 5.92493 3.48289 4.97462 4.22877 4.22874C4.97465 3.48286 5.92495 2.97491 6.95952 2.76912C7.99409 2.56334 9.06644 2.66895 10.041 3.07262C11.0155 3.47629 11.8485 4.15988 12.4345 5.03694C13.0205 5.914 13.3333 6.94515 13.3333 7.99998C13.3333 9.41447 12.7714 10.771 11.7712 11.7712C10.771 12.7714 9.41449 13.3333 8 13.3333Z" fill="#7D7882"/>
<path d="M10.6667 7.33329H8.66667V5.33329C8.66667 5.15648 8.59643 4.98691 8.47141 4.86189C8.34638 4.73686 8.17681 4.66663 8 4.66663C7.82319 4.66663 7.65362 4.73686 7.5286 4.86189C7.40357 4.98691 7.33334 5.15648 7.33334 5.33329V7.99996C7.33334 8.17677 7.40357 8.34634 7.5286 8.47136C7.65362 8.59639 7.82319 8.66663 8 8.66663H10.6667C10.8435 8.66663 11.013 8.59639 11.1381 8.47136C11.2631 8.34634 11.3333 8.17677 11.3333 7.99996C11.3333 7.82315 11.2631 7.65358 11.1381 7.52856C11.013 7.40353 10.8435 7.33329 10.6667 7.33329Z" fill="#7D7882"/>
</svg>
