<svg width="13" height="13" viewBox="0 0 13 13" fill="none" xmlns="http://www.w3.org/2000/svg">
<path d="M6.85159 12.0019C6.6899 12.0022 6.53148 11.956 6.39492 11.8688C6.25836 11.7817 6.14933 11.6571 6.08061 11.5098C6.01189 11.3624 5.98633 11.1984 6.00693 11.0369C6.02753 10.8755 6.09345 10.7233 6.19693 10.5982L10.0059 6.01047L6.33297 1.41417C6.26263 1.32368 6.21068 1.22014 6.18009 1.10945C6.14949 0.998751 6.14086 0.883075 6.15468 0.769022C6.16849 0.654968 6.20449 0.544771 6.26061 0.444722C6.31673 0.344674 6.39187 0.256732 6.48175 0.18592C6.57163 0.115107 6.67448 0.0628093 6.78444 0.0320131C6.8944 0.00121701 7.0093 -0.00747445 7.12259 0.00643449C7.23589 0.0203434 7.34535 0.0565805 7.44473 0.113077C7.54411 0.169573 7.63146 0.245223 7.7018 0.335706L11.8083 5.47124C11.9334 5.62439 12.0017 5.81649 12.0017 6.01475C12.0017 6.213 11.9334 6.4051 11.8083 6.55826L7.55727 11.6938C7.47198 11.7974 7.36363 11.8792 7.24102 11.9328C7.11841 11.9863 6.985 12.01 6.85159 12.0019Z" fill="#BCBCBC"/>
<path d="M0.851594 12.0019C0.689897 12.0022 0.531478 11.956 0.39492 11.8688C0.258362 11.7817 0.149327 11.6571 0.0806064 11.5098C0.0118853 11.3624 -0.0136729 11.1984 0.00693085 11.0369C0.0275346 10.8755 0.093445 10.7233 0.196931 10.5982L4.00587 6.01047L0.332966 1.41417C0.262625 1.32368 0.210676 1.22014 0.180086 1.10945C0.149495 0.998751 0.140861 0.883075 0.154678 0.769022C0.168494 0.654968 0.204489 0.544771 0.260608 0.444722C0.316728 0.344674 0.391873 0.256732 0.481752 0.18592C0.571631 0.115107 0.674485 0.0628093 0.78444 0.0320131C0.894396 0.00121701 1.0093 -0.00747445 1.12259 0.00643449C1.23589 0.0203434 1.34535 0.0565805 1.44473 0.113077C1.54411 0.169573 1.63146 0.245223 1.7018 0.335706L5.80832 5.47124C5.93337 5.62439 6.00173 5.81649 6.00173 6.01475C6.00173 6.213 5.93337 6.4051 5.80832 6.55826L1.55727 11.6938C1.47198 11.7974 1.36363 11.8792 1.24102 11.9328C1.11841 11.9863 0.984997 12.01 0.851594 12.0019Z" fill="#BCBCBC"/>
</svg>
