<svg width="8" height="14" viewBox="0 0 8 14" fill="none" xmlns="http://www.w3.org/2000/svg">
<path d="M6.64803 14C6.50216 13.9999 6.35823 13.9666 6.22722 13.9025C6.0962 13.8383 5.98156 13.7452 5.89203 13.63L1.21203 7.63C1.06928 7.44912 0.991638 7.22542 0.991638 6.995C0.991638 6.76458 1.06928 6.54087 1.21203 6.36L6.05603 0.359997C6.13553 0.259423 6.23458 0.175981 6.34719 0.1147C6.4598 0.0534187 6.58365 0.0155649 6.71128 0.00341867C6.83891 -0.00872757 6.96767 0.00508504 7.08982 0.0440247C7.21197 0.0829643 7.32498 0.146225 7.42203 0.229997C7.62076 0.403444 7.74482 0.646952 7.76829 0.909683C7.79177 1.17241 7.71286 1.43406 7.54803 1.64L3.21903 7L7.40003 12.36C7.51898 12.5086 7.59424 12.6874 7.61737 12.8764C7.64051 13.0654 7.61061 13.2571 7.53103 13.43C7.45426 13.6005 7.32972 13.7451 7.17247 13.8462C7.01521 13.9474 6.83201 14.0008 6.64503 14H6.64803Z" fill="#B8B3BC"/>
</svg>
