<svg width="18" height="15" viewBox="0 0 18 15" fill="none" xmlns="http://www.w3.org/2000/svg">
<path d="M17.128 3.2842C17.0327 2.91112 16.8856 2.55324 16.6909 2.22099C16.504 1.87537 16.2649 1.56059 15.9821 1.28773C15.5722 0.879145 15.0867 0.554154 14.5527 0.330844C13.4779 -0.110281 12.2725 -0.110281 11.1977 0.330844C10.693 0.544476 10.2293 0.844281 9.82733 1.21685L9.76826 1.28773L9.00039 2.0556L8.23251 1.28773L8.17345 1.21685C7.7715 0.844281 7.3078 0.544476 6.80309 0.330844C5.72825 -0.110281 4.52291 -0.110281 3.44807 0.330844C2.91409 0.554154 2.42861 0.879145 2.01865 1.28773C1.45794 1.83331 1.06102 2.52486 0.872746 3.2842C0.772586 3.66982 0.724902 4.06718 0.730985 4.46554C0.730985 4.84003 0.778239 5.21333 0.872746 5.57601C0.971783 5.94227 1.11457 6.29528 1.29803 6.6274C1.49616 6.96882 1.73845 7.28261 2.01865 7.56066L9.00039 14.5424L15.9821 7.56066C16.2621 7.28541 16.5019 6.96999 16.6909 6.6274C17.0746 5.97188 17.2746 5.22508 17.2698 4.46554C17.2759 4.06718 17.2282 3.66981 17.128 3.2842ZM15.9467 5.20979C15.8052 5.74957 15.5241 6.24257 15.1316 6.63921L8.97676 12.7822L2.82196 6.63921C2.6214 6.43722 2.44679 6.21103 2.30217 5.96585C2.16609 5.72329 2.05903 5.46556 1.98321 5.19798C1.92268 4.93042 1.89099 4.65715 1.8887 4.38285C1.8903 4.1007 1.92198 3.81953 1.98321 3.5441C2.05681 3.27574 2.16397 3.01775 2.30217 2.77622C2.44393 2.52814 2.61877 2.30369 2.82196 2.10286C3.12544 1.80344 3.48197 1.56308 3.87336 1.39405C4.66204 1.07854 5.54187 1.07854 6.33055 1.39405C6.72039 1.5559 7.07243 1.79335 7.37013 2.09104L8.97676 3.70948L10.5834 2.09104C10.8809 1.79282 11.2341 1.556 11.623 1.39405C12.4116 1.07854 13.2915 1.07854 14.0802 1.39405C14.4712 1.56298 14.8279 1.80398 15.1316 2.10286C15.3371 2.29778 15.5096 2.5246 15.6395 2.77622C15.9132 3.25876 16.0557 3.80451 16.053 4.35922C16.0691 4.64466 16.0452 4.93095 15.9821 5.20979H15.9467Z" fill="white"/>
</svg>
