<svg width="20" height="17" viewBox="0 0 20 17" fill="none" xmlns="http://www.w3.org/2000/svg">
<path d="M19.2886 3.75337C19.1797 3.327 19.0115 2.91799 18.7891 2.53828C18.5754 2.14327 18.3022 1.78353 17.979 1.47169C17.5105 1.00474 16.9557 0.633319 16.3454 0.378108C15.117 -0.126036 13.7395 -0.126036 12.5111 0.378108C11.9343 0.622259 11.4043 0.964893 10.945 1.39069L10.8775 1.47169L9.9999 2.34926L9.12233 1.47169L9.05483 1.39069C8.59546 0.964893 8.06552 0.622259 7.48871 0.378108C6.26032 -0.126036 4.88279 -0.126036 3.6544 0.378108C3.04413 0.633319 2.4893 1.00474 2.02077 1.47169C1.37996 2.09521 0.92634 2.88555 0.711172 3.75337C0.596703 4.19408 0.542207 4.64821 0.549159 5.10348C0.549159 5.53146 0.603163 5.9581 0.711172 6.37258C0.824356 6.79117 0.987544 7.19461 1.19721 7.57417C1.42364 7.96436 1.70055 8.32298 2.02077 8.64075L9.9999 16.6199L17.979 8.64075C18.299 8.32618 18.5731 7.9657 18.7891 7.57417C19.2276 6.82501 19.4561 5.97152 19.4506 5.10348C19.4576 4.6482 19.4032 4.19407 19.2886 3.75337ZM17.9385 5.95404C17.7768 6.57093 17.4555 7.13437 17.007 7.58767L9.9729 14.6082L2.93885 7.58767C2.70963 7.35683 2.51008 7.09832 2.3448 6.81811C2.18928 6.54091 2.06693 6.24636 1.98027 5.94054C1.91109 5.63477 1.87488 5.32246 1.87226 5.00897C1.87409 4.68652 1.9103 4.36517 1.98027 4.0504C2.06438 3.7437 2.18686 3.44885 2.3448 3.17283C2.50681 2.8893 2.70663 2.63278 2.93885 2.40327C3.28568 2.06107 3.69315 1.78638 4.14044 1.5932C5.04179 1.23262 6.04731 1.23262 6.94866 1.5932C7.3942 1.77817 7.79653 2.04954 8.13676 2.38977L9.9729 4.23941L11.809 2.38977C12.149 2.04894 12.5527 1.77828 12.9971 1.5932C13.8985 1.23262 14.904 1.23262 15.8054 1.5932C16.2522 1.78627 16.66 2.06169 17.007 2.40327C17.2419 2.62603 17.439 2.88525 17.5875 3.17283C17.9002 3.7243 18.0631 4.34801 18.06 4.98197C18.0784 5.30819 18.0511 5.63537 17.979 5.95404H17.9385Z" fill="#B8B3BC"/>
</svg>
