<svg width="12" height="11" viewBox="0 0 12 11" fill="none" xmlns="http://www.w3.org/2000/svg">
<path d="M11.8824 0.323529H3.29412C3.22941 0.323529 3.17647 0.381765 3.17647 0.452941V1.35882C3.17647 1.43 3.22941 1.48824 3.29412 1.48824H11.8824C11.9471 1.48824 12 1.43 12 1.35882V0.452941C12 0.381765 11.9471 0.323529 11.8824 0.323529ZM11.8824 4.91765H3.29412C3.22941 4.91765 3.17647 4.97588 3.17647 5.04706V5.95294C3.17647 6.02412 3.22941 6.08235 3.29412 6.08235H11.8824C11.9471 6.08235 12 6.02412 12 5.95294V5.04706C12 4.97588 11.9471 4.91765 11.8824 4.91765ZM11.8824 9.51177H3.29412C3.22941 9.51177 3.17647 9.57 3.17647 9.64118V10.5471C3.17647 10.6182 3.22941 10.6765 3.29412 10.6765H11.8824C11.9471 10.6765 12 10.6182 12 10.5471V9.64118C12 9.57 11.9471 9.51177 11.8824 9.51177ZM0 0.905882C-1.61152e-09 1.02484 0.0213013 1.14264 0.0626875 1.25255C0.104074 1.36246 0.164734 1.46232 0.241206 1.54644C0.317678 1.63056 0.408463 1.69728 0.508378 1.74281C0.608294 1.78833 0.715382 1.81176 0.823529 1.81176C0.931677 1.81176 1.03877 1.78833 1.13868 1.74281C1.2386 1.69728 1.32938 1.63056 1.40585 1.54644C1.48232 1.46232 1.54299 1.36246 1.58437 1.25255C1.62576 1.14264 1.64706 1.02484 1.64706 0.905882C1.64706 0.78692 1.62576 0.669123 1.58437 0.559216C1.54299 0.44931 1.48232 0.349446 1.40585 0.265327C1.32938 0.181208 1.2386 0.114481 1.13868 0.0689561C1.03877 0.0234313 0.931677 0 0.823529 0C0.715382 0 0.608294 0.0234313 0.508378 0.0689561C0.408463 0.114481 0.317678 0.181208 0.241206 0.265327C0.164734 0.349446 0.104074 0.44931 0.0626875 0.559216C0.0213013 0.669123 -1.61152e-09 0.78692 0 0.905882ZM0 5.5C-1.61152e-09 5.61896 0.0213013 5.73676 0.0626875 5.84667C0.104074 5.95657 0.164734 6.05644 0.241206 6.14056C0.317678 6.22467 0.408463 6.2914 0.508378 6.33693C0.608294 6.38245 0.715382 6.40588 0.823529 6.40588C0.931677 6.40588 1.03877 6.38245 1.13868 6.33693C1.2386 6.2914 1.32938 6.22467 1.40585 6.14056C1.48232 6.05644 1.54299 5.95657 1.58437 5.84667C1.62576 5.73676 1.64706 5.61896 1.64706 5.5C1.64706 5.38104 1.62576 5.26324 1.58437 5.15333C1.54299 5.04343 1.48232 4.94356 1.40585 4.85944C1.32938 4.77533 1.2386 4.7086 1.13868 4.66307C1.03877 4.61755 0.931677 4.59412 0.823529 4.59412C0.715382 4.59412 0.608294 4.61755 0.508378 4.66307C0.408463 4.7086 0.317678 4.77533 0.241206 4.85944C0.164734 4.94356 0.104074 5.04343 0.0626875 5.15333C0.0213013 5.26324 -1.61152e-09 5.38104 0 5.5ZM0 10.0941C-1.61152e-09 10.2131 0.0213013 10.3309 0.0626875 10.4408C0.104074 10.5507 0.164734 10.6506 0.241206 10.7347C0.317678 10.8188 0.408463 10.8855 0.508378 10.931C0.608294 10.9766 0.715382 11 0.823529 11C0.931677 11 1.03877 10.9766 1.13868 10.931C1.2386 10.8855 1.32938 10.8188 1.40585 10.7347C1.48232 10.6506 1.54299 10.5507 1.58437 10.4408C1.62576 10.3309 1.64706 10.2131 1.64706 10.0941C1.64706 9.97516 1.62576 9.85736 1.58437 9.74745C1.54299 9.63754 1.48232 9.53768 1.40585 9.45356C1.32938 9.36944 1.2386 9.30272 1.13868 9.25719C1.03877 9.21167 0.931677 9.18824 0.823529 9.18824C0.715382 9.18824 0.608294 9.21167 0.508378 9.25719C0.408463 9.30272 0.317678 9.36944 0.241206 9.45356C0.164734 9.53768 0.104074 9.63754 0.0626875 9.74745C0.0213013 9.85736 -1.61152e-09 9.97516 0 10.0941Z" fill="#403946"/>
</svg>
