<svg width="12" height="12" viewBox="0 0 12 12" fill="none" xmlns="http://www.w3.org/2000/svg">
<path d="M11.2281 1.20864H3.59412C3.5366 1.20864 3.48955 1.26255 3.48955 1.32843V2.16693C3.48955 2.23282 3.5366 2.28672 3.59412 2.28672H11.2281C11.2856 2.28672 11.3327 2.23282 11.3327 2.16693V1.32843C11.3327 1.26255 11.2856 1.20864 11.2281 1.20864ZM11.2281 5.46105H3.59412C3.5366 5.46105 3.48955 5.51496 3.48955 5.58084V6.41934C3.48955 6.48522 3.5366 6.53913 3.59412 6.53913H11.2281C11.2856 6.53913 11.3327 6.48522 11.3327 6.41934V5.58084C11.3327 5.51496 11.2856 5.46105 11.2281 5.46105ZM11.2281 9.71346H3.59412C3.5366 9.71346 3.48955 9.76736 3.48955 9.83324V10.6717C3.48955 10.7376 3.5366 10.7915 3.59412 10.7915H11.2281C11.2856 10.7915 11.3327 10.7376 11.3327 10.6717V9.83324C11.3327 9.76736 11.2856 9.71346 11.2281 9.71346ZM0.666016 1.74768C0.666016 1.8578 0.68495 1.96683 0.721738 2.06856C0.758526 2.1703 0.812446 2.26273 0.880421 2.34059C0.948396 2.41846 1.02909 2.48022 1.11791 2.52236C1.20672 2.5645 1.30191 2.58618 1.39804 2.58618C1.49417 2.58618 1.58936 2.5645 1.67818 2.52236C1.76699 2.48022 1.84769 2.41846 1.91566 2.34059C1.98364 2.26273 2.03756 2.1703 2.07435 2.06856C2.11113 1.96683 2.13007 1.8578 2.13007 1.74768C2.13007 1.63757 2.11113 1.52853 2.07435 1.4268C2.03756 1.32507 1.98364 1.23263 1.91566 1.15477C1.84769 1.07691 1.76699 1.01515 1.67818 0.973007C1.58936 0.930868 1.49417 0.90918 1.39804 0.90918C1.30191 0.90918 1.20672 0.930868 1.11791 0.973007C1.02909 1.01515 0.948396 1.07691 0.880421 1.15477C0.812446 1.23263 0.758526 1.32507 0.721738 1.4268C0.68495 1.52853 0.666016 1.63757 0.666016 1.74768ZM0.666016 6.00009C0.666016 6.1102 0.68495 6.21924 0.721738 6.32097C0.758526 6.4227 0.812446 6.51514 0.880421 6.593C0.948396 6.67086 1.02909 6.73263 1.11791 6.77476C1.20672 6.8169 1.30191 6.83859 1.39804 6.83859C1.49417 6.83859 1.58936 6.8169 1.67818 6.77476C1.76699 6.73263 1.84769 6.67086 1.91566 6.593C1.98364 6.51514 2.03756 6.4227 2.07435 6.32097C2.11113 6.21924 2.13007 6.1102 2.13007 6.00009C2.13007 5.88997 2.11113 5.78094 2.07435 5.67921C2.03756 5.57748 1.98364 5.48504 1.91566 5.40718C1.84769 5.32932 1.76699 5.26755 1.67818 5.22541C1.58936 5.18327 1.49417 5.16159 1.39804 5.16159C1.30191 5.16159 1.20672 5.18327 1.11791 5.22541C1.02909 5.26755 0.948396 5.32932 0.880421 5.40718C0.812446 5.48504 0.758526 5.57748 0.721738 5.67921C0.68495 5.78094 0.666016 5.88997 0.666016 6.00009ZM0.666016 10.2525C0.666016 10.3626 0.68495 10.4716 0.721738 10.5734C0.758526 10.6751 0.812446 10.7675 0.880421 10.8454C0.948396 10.9233 1.02909 10.985 1.11791 11.0272C1.20672 11.0693 1.30191 11.091 1.39804 11.091C1.49417 11.091 1.58936 11.0693 1.67818 11.0272C1.76699 10.985 1.84769 10.9233 1.91566 10.8454C1.98364 10.7675 2.03756 10.6751 2.07435 10.5734C2.11113 10.4716 2.13007 10.3626 2.13007 10.2525C2.13007 10.1424 2.11113 10.0333 2.07435 9.93161C2.03756 9.82988 1.98364 9.73745 1.91566 9.65958C1.84769 9.58172 1.76699 9.51996 1.67818 9.47782C1.58936 9.43568 1.49417 9.41399 1.39804 9.41399C1.30191 9.41399 1.20672 9.43568 1.11791 9.47782C1.02909 9.51996 0.948396 9.58172 0.880421 9.65958C0.812446 9.73745 0.758526 9.82988 0.721738 9.93161C0.68495 10.0333 0.666016 10.1424 0.666016 10.2525Z" fill="#521780"/>
</svg>
