<svg width="9" height="16" viewBox="0 0 9 16" fill="none" xmlns="http://www.w3.org/2000/svg">
<path d="M1.99998 15C1.80979 15.0003 1.62347 14.9464 1.46285 14.8445C1.30223 14.7427 1.17399 14.5972 1.09316 14.425C1.01233 14.2528 0.98227 14.0612 1.0065 13.8726C1.03074 13.6839 1.10826 13.5061 1.22998 13.36L5.70998 8L1.38998 2.63C1.30725 2.52428 1.24615 2.40331 1.21016 2.27398C1.17418 2.14466 1.16403 2.00951 1.18028 1.87626C1.19653 1.743 1.23887 1.61426 1.30487 1.49737C1.37088 1.38048 1.45926 1.27773 1.56498 1.195C1.67069 1.11227 1.79167 1.05117 1.92099 1.01519C2.05032 0.979205 2.18547 0.969051 2.31872 0.985301C2.45197 1.00155 2.58072 1.04389 2.69761 1.10989C2.8145 1.1759 2.91725 1.26428 2.99998 1.37L7.82998 7.37C7.97706 7.54893 8.05747 7.77337 8.05747 8.005C8.05747 8.23662 7.97706 8.46107 7.82998 8.64L2.82998 14.64C2.72966 14.761 2.60223 14.8567 2.45802 14.9192C2.31381 14.9818 2.15688 15.0094 1.99998 15Z" fill="#7D7882"/>
</svg>
