<svg width="56" height="56" viewBox="0 0 56 56" fill="none" xmlns="http://www.w3.org/2000/svg">
<rect width="56" height="56" rx="8" fill="#521780"/>
<path d="M31.5937 10C34.8875 9.99843 38.0823 11.1264 40.6453 13.1959C43.2082 15.2653 44.9844 18.1511 45.6775 21.3719C46.3707 24.5927 45.9389 27.9539 44.4543 30.8948C42.9696 33.8358 40.5218 36.1787 37.5191 37.5329C36.5593 39.6553 35.0991 41.5132 33.2638 42.9473C31.4285 44.3814 29.2728 45.3488 26.9817 45.7665C24.6905 46.1843 22.3322 46.0399 20.1091 45.3458C17.8859 44.6518 15.8643 43.4287 14.2175 41.7815C12.5707 40.1343 11.3479 38.1122 10.654 35.8885C9.9601 33.6648 9.81579 31.3059 10.2334 29.0142C10.6511 26.7225 11.6182 24.5663 13.052 22.7306C14.4857 20.8948 16.3431 19.4343 18.4651 18.4743C19.6065 15.9482 21.4522 13.8051 23.7809 12.302C26.1096 10.7988 28.8223 9.99957 31.5937 10ZM26.194 22.6025H22.5941V24.4029C21.4244 24.4 20.2995 24.8529 19.4579 25.6655C18.6163 26.4781 18.1242 27.5866 18.0858 28.756C18.0474 29.9254 18.4658 31.0638 19.2523 31.9299C20.0388 32.796 21.1315 33.3217 22.2989 33.3956L22.5941 33.4046H26.194L26.356 33.419C26.5635 33.4566 26.7512 33.5659 26.8863 33.7278C27.0215 33.8897 27.0956 34.0939 27.0956 34.3048C27.0956 34.5157 27.0215 34.72 26.8863 34.8819C26.7512 35.0437 26.5635 35.153 26.356 35.1906L26.194 35.205H18.9943V38.8057H22.5941V40.6061H26.194V38.8057C27.3637 38.8086 28.4886 38.3557 29.3302 37.543C30.1718 36.7304 30.6639 35.6219 30.7023 34.4525C30.7407 33.2831 30.3223 32.1447 29.5358 31.2786C28.7493 30.4126 27.6566 29.8868 26.4891 29.8129L26.194 29.8039H22.5941L22.4321 29.7895C22.2246 29.7519 22.0369 29.6427 21.9017 29.4808C21.7666 29.3189 21.6925 29.1147 21.6925 28.9037C21.6925 28.6928 21.7666 28.4886 21.9017 28.3267C22.0369 28.1648 22.2246 28.0556 22.4321 28.018L22.5941 28.0036H29.7938V24.4029H26.194V22.6025ZM31.5937 13.6007C30.0686 13.5989 28.5605 13.9211 27.1692 14.5458C25.7779 15.1706 24.535 16.0837 23.5229 17.2248C25.5573 17.1013 27.5947 17.4112 29.5004 18.1339C31.4062 18.8567 33.1368 19.9759 34.5779 21.4175C36.019 22.8591 37.1377 24.5903 37.8601 26.4966C38.5824 28.4028 38.892 30.4408 38.7682 32.4757C40.4047 31.0203 41.5603 29.1017 42.0815 26.9743C42.6028 24.847 42.4652 22.6113 41.687 20.564C40.9088 18.5166 39.5268 16.7543 37.7241 15.5107C35.9215 14.2671 33.7835 13.601 31.5937 13.6007Z" fill="white"/>
</svg>
