<svg width="16" height="13" viewBox="0 0 16 13" fill="none" xmlns="http://www.w3.org/2000/svg">
<path d="M14.9667 2.81503C14.885 2.49525 14.7589 2.18849 14.592 1.90371C14.4318 1.60746 14.2268 1.33765 13.9845 1.10377C13.6331 0.753553 13.2169 0.474989 12.7592 0.283581C11.838 -0.0945269 10.8048 -0.0945269 9.88352 0.283581C9.45091 0.466694 9.05346 0.72367 8.70893 1.04302L8.6583 1.10377L8.00012 1.76195L7.34195 1.10377L7.29132 1.04302C6.94679 0.72367 6.54933 0.466694 6.11672 0.283581C5.19543 -0.0945269 4.16229 -0.0945269 3.241 0.283581C2.78329 0.474989 2.36717 0.753553 2.01578 1.10377C1.53517 1.57141 1.19495 2.16416 1.03357 2.81503C0.947722 3.14556 0.90685 3.48615 0.912064 3.82761C0.912064 4.1486 0.952567 4.46857 1.03357 4.77943C1.11846 5.09338 1.24085 5.39596 1.3981 5.68063C1.56793 5.97327 1.77561 6.24224 2.01578 6.48057L8.00012 12.4649L13.9845 6.48057C14.2245 6.24464 14.43 5.97428 14.592 5.68063C14.9209 5.11875 15.0923 4.47864 15.0882 3.82761C15.0934 3.48615 15.0526 3.14555 14.9667 2.81503ZM13.9541 4.46553C13.8328 4.9282 13.5918 5.35077 13.2554 5.69075L7.97987 10.9562L2.70433 5.69075C2.53242 5.51762 2.38275 5.32374 2.25879 5.11358C2.14215 4.90568 2.05039 4.68477 1.9854 4.45541C1.93351 4.22608 1.90636 3.99185 1.90439 3.75673C1.90577 3.51489 1.93292 3.27388 1.9854 3.0378C2.04848 2.80778 2.14034 2.58664 2.25879 2.37962C2.3803 2.16698 2.53017 1.97459 2.70433 1.80245C2.96446 1.54581 3.27005 1.33979 3.60553 1.1949C4.28154 0.924466 5.03568 0.924466 5.71169 1.1949C6.04584 1.33363 6.34759 1.53715 6.60276 1.79232L7.97987 3.17956L9.35698 1.79232C9.61197 1.5367 9.91474 1.33371 10.248 1.1949C10.9241 0.924466 11.6782 0.924466 12.3542 1.1949C12.6894 1.3397 12.9952 1.54627 13.2554 1.80245C13.4316 1.96953 13.5794 2.16394 13.6908 2.37962C13.9254 2.79322 14.0475 3.26101 14.0452 3.73648C14.059 3.98114 14.0386 4.22653 13.9845 4.46553H13.9541Z" fill="#7D7882"/>
</svg>
