<svg width="11" height="12" viewBox="0 0 11 12" fill="none" xmlns="http://www.w3.org/2000/svg">
<path d="M10.2499 0.75H0.916585C0.761876 0.75 0.613503 0.811458 0.504106 0.920854C0.39471 1.03025 0.333252 1.17862 0.333252 1.33333V2.84417C0.333252 3.14925 0.457502 3.44908 0.673335 3.66492L3.83325 6.82483V11.25C3.83337 11.3494 3.85884 11.4471 3.90728 11.5339C3.95571 11.6207 4.02549 11.6937 4.11001 11.7459C4.19453 11.7982 4.291 11.8281 4.39028 11.8326C4.48956 11.8372 4.58836 11.8164 4.67733 11.7721L7.01067 10.6054C7.20842 10.5063 7.33325 10.3044 7.33325 10.0833V6.82483L10.4932 3.66492C10.709 3.44908 10.8333 3.14925 10.8333 2.84417V1.33333C10.8333 1.17862 10.7718 1.03025 10.6624 0.920854C10.553 0.811458 10.4046 0.75 10.2499 0.75ZM6.3375 6.17092C6.28323 6.225 6.24018 6.28927 6.21085 6.36005C6.18152 6.43083 6.16647 6.50672 6.16658 6.58333V9.72283L4.99992 10.3062V6.58333C5.00003 6.50672 4.98499 6.43083 4.95565 6.36005C4.92632 6.28927 4.88328 6.225 4.829 6.17092L1.49992 2.84417V1.91667H9.66717L9.66833 2.84008L6.3375 6.17092Z" fill="#7D7882"/>
</svg>
