<svg width="14" height="14" viewBox="0 0 14 14" fill="none" xmlns="http://www.w3.org/2000/svg">
<path d="M6.99967 6.99984C8.61051 6.99984 9.91634 5.694 9.91634 4.08317C9.91634 2.47234 8.61051 1.1665 6.99967 1.1665C5.38884 1.1665 4.08301 2.47234 4.08301 4.08317C4.08301 5.694 5.38884 6.99984 6.99967 6.99984Z" stroke="#7D7882"/>
<path d="M9.91654 8.1665H10.1219C10.5483 8.16662 10.9601 8.32247 11.2797 8.60475C11.5994 8.88704 11.805 9.27633 11.8579 9.6995L12.086 11.5218C12.1065 11.686 12.0918 11.8527 12.043 12.0107C11.9942 12.1688 11.9123 12.3147 11.8028 12.4387C11.6933 12.5627 11.5587 12.662 11.4079 12.73C11.257 12.7981 11.0935 12.8332 10.928 12.8332H3.07171C2.90626 12.8332 2.7427 12.7981 2.59188 12.73C2.44106 12.662 2.30643 12.5627 2.19692 12.4387C2.08742 12.3147 2.00554 12.1688 1.95673 12.0107C1.90791 11.8527 1.89327 11.686 1.91379 11.5218L2.14129 9.6995C2.1942 9.27613 2.39995 8.88668 2.71986 8.60437C3.03977 8.32205 3.45179 8.16634 3.87846 8.1665H4.08321" stroke="#7D7882" stroke-linecap="round" stroke-linejoin="round"/>
</svg>
