<svg width="24" height="24" viewBox="0 0 24 24" fill="none" xmlns="http://www.w3.org/2000/svg">
<path d="M12 22.5C9.21523 22.5 6.54451 21.3938 4.57538 19.4246C2.60625 17.4555 1.5 14.7848 1.5 12C1.5 9.21523 2.60625 6.54451 4.57538 4.57538C6.54451 2.60625 9.21523 1.5 12 1.5C14.7848 1.5 17.4555 2.60625 19.4246 4.57538C21.3938 6.54451 22.5 9.21523 22.5 12C22.5 14.7848 21.3938 17.4555 19.4246 19.4246C17.4555 21.3938 14.7848 22.5 12 22.5ZM12 24C15.1826 24 18.2348 22.7357 20.4853 20.4853C22.7357 18.2348 24 15.1826 24 12C24 8.8174 22.7357 5.76516 20.4853 3.51472C18.2348 1.26428 15.1826 0 12 0C8.8174 0 5.76516 1.26428 3.51472 3.51472C1.26428 5.76516 0 8.8174 0 12C0 15.1826 1.26428 18.2348 3.51472 20.4853C5.76516 22.7357 8.8174 24 12 24Z" fill="#7D7882"/>
<path d="M6.96936 6.96936C7.03903 6.89952 7.1218 6.8441 7.21291 6.80629C7.30403 6.76849 7.40171 6.74902 7.50036 6.74902C7.59901 6.74902 7.6967 6.76849 7.78781 6.80629C7.87893 6.8441 7.9617 6.89952 8.03136 6.96936L12.0004 10.9399L15.9694 6.96936C16.0391 6.89963 16.1219 6.84432 16.213 6.80658C16.3041 6.76884 16.4017 6.74942 16.5004 6.74942C16.599 6.74942 16.6966 6.76884 16.7877 6.80658C16.8788 6.84432 16.9616 6.89963 17.0314 6.96936C17.1011 7.0391 17.1564 7.12188 17.1941 7.21299C17.2319 7.3041 17.2513 7.40175 17.2513 7.50036C17.2513 7.59898 17.2319 7.69663 17.1941 7.78774C17.1564 7.87885 17.1011 7.96163 17.0314 8.03136L13.0609 12.0004L17.0314 15.9694C17.1011 16.0391 17.1564 16.1219 17.1941 16.213C17.2319 16.3041 17.2513 16.4017 17.2513 16.5004C17.2513 16.599 17.2319 16.6966 17.1941 16.7877C17.1564 16.8788 17.1011 16.9616 17.0314 17.0314C16.9616 17.1011 16.8788 17.1564 16.7877 17.1941C16.6966 17.2319 16.599 17.2513 16.5004 17.2513C16.4017 17.2513 16.3041 17.2319 16.213 17.1941C16.1219 17.1564 16.0391 17.1011 15.9694 17.0314L12.0004 13.0609L8.03136 17.0314C7.96163 17.1011 7.87885 17.1564 7.78774 17.1941C7.69663 17.2319 7.59898 17.2513 7.50036 17.2513C7.40175 17.2513 7.3041 17.2319 7.21299 17.1941C7.12188 17.1564 7.0391 17.1011 6.96936 17.0314C6.89963 16.9616 6.84432 16.8788 6.80658 16.7877C6.76884 16.6966 6.74942 16.599 6.74942 16.5004C6.74942 16.4017 6.76884 16.3041 6.80658 16.213C6.84432 16.1219 6.89963 16.0391 6.96936 15.9694L10.9399 12.0004L6.96936 8.03136C6.89952 7.9617 6.8441 7.87893 6.80629 7.78781C6.76849 7.6967 6.74902 7.59901 6.74902 7.50036C6.74902 7.40171 6.76849 7.30403 6.80629 7.21291C6.8441 7.1218 6.89952 7.03903 6.96936 6.96936Z" fill="#7D7882"/>
</svg>
