<svg xmlns="http://www.w3.org/2000/svg" xmlns:xlink="http://www.w3.org/1999/xlink" width="30" height="28" viewBox="0 0 30 28">
  <defs>
    <clipPath id="clip-path">
      <rect id="Rectangle_96" data-name="Rectangle 96" width="30" height="28" transform="translate(91 1181)" fill="#fff" stroke="#707070" stroke-width="1"/>
    </clipPath>
  </defs>
  <g id="Mask_Group_15" data-name="Mask Group 15" transform="translate(-91 -1181)" clip-path="url(#clip-path)">
    <g id="medal_1_" data-name="medal (1)" transform="translate(92 1181)">
      <g id="Group_172" data-name="Group 172">
        <g id="Group_171" data-name="Group 171">
          <path id="Path_68" data-name="Path 68" d="M23.2,7.658a2.817,2.817,0,0,1-.832-2.006,3.736,3.736,0,0,0-3.73-3.73,2.827,2.827,0,0,1-2.006-.832,3.731,3.731,0,0,0-5.273,0,2.817,2.817,0,0,1-2.006.832,3.736,3.736,0,0,0-3.73,3.73A2.8,2.8,0,0,1,4.8,7.658a3.738,3.738,0,0,0,0,5.278,2.817,2.817,0,0,1,.832,2.006A3.734,3.734,0,0,0,8.3,18.518L6.135,26.606,9.4,24.788,11.32,28l2-7.466a3.819,3.819,0,0,0,1.355,0l2.006,7.46L18.6,24.782,21.865,26.6,19.7,18.512a3.734,3.734,0,0,0,2.672-3.576,2.827,2.827,0,0,1,.832-2.006A3.731,3.731,0,0,0,23.2,7.658ZM11.011,25.719,9.733,23.581,7.556,24.793,9.2,18.667c.061.006.116.006.171.006a2.827,2.827,0,0,1,2.006.832c.088.088.176.165.27.242l.083.066c.066.05.132.1.2.149.039.028.083.05.121.077.061.033.116.072.176.1s.1.055.154.077a.7.7,0,0,0,.088.039Zm9.449-.926-2.176-1.212-1.278,2.138-1.46-5.46a.717.717,0,0,1,.094-.044c.055-.028.1-.05.16-.083s.116-.066.171-.1l.127-.077c.066-.044.127-.094.193-.143a.6.6,0,0,0,.094-.072c.094-.077.182-.154.27-.242a2.817,2.817,0,0,1,2.006-.832,1.536,1.536,0,0,0,.16,0ZM22.57,12.3a3.7,3.7,0,0,0-1.091,2.639,2.841,2.841,0,0,1-2.259,2.777l-.143.022c-.077.011-.143.022-.215.028s-.149.011-.22.011a3.749,3.749,0,0,0-1.085.16,3.677,3.677,0,0,0-1.548.931,2.8,2.8,0,0,1-.237.209c-.028.022-.055.039-.083.061a1.993,1.993,0,0,1-.176.121c-.028.017-.061.039-.094.055-.066.039-.132.072-.2.1a.5.5,0,0,0-.077.039,2.407,2.407,0,0,1-.253.1c-.017.006-.039.017-.055.022l-.033.011a2.9,2.9,0,0,1-1.592,0l-.044-.011-.044-.017c-.088-.028-.176-.066-.264-.1l-.072-.033c-.072-.033-.138-.072-.2-.11l-.083-.05a2.23,2.23,0,0,1-.187-.127.624.624,0,0,1-.072-.055c-.083-.066-.16-.138-.237-.209a3.711,3.711,0,0,0-1.548-.931,3.749,3.749,0,0,0-1.085-.16c-.077,0-.149-.006-.22-.011s-.138-.017-.215-.028l-.143-.022a2.841,2.841,0,0,1-2.259-2.777,3.7,3.7,0,0,0-1.091-2.639,2.833,2.833,0,0,1,0-4.011A3.7,3.7,0,0,0,6.532,5.664,2.835,2.835,0,0,1,9.364,2.832,3.7,3.7,0,0,0,12,1.741a2.847,2.847,0,0,1,4.011,0,3.7,3.7,0,0,0,2.639,1.091,2.835,2.835,0,0,1,2.832,2.832A3.7,3.7,0,0,0,22.576,8.3,2.828,2.828,0,0,1,22.57,12.3Z"/>
          <path id="Path_69" data-name="Path 69" d="M14,3.587A6.713,6.713,0,1,0,20.719,10.3,6.725,6.725,0,0,0,14,3.587Zm0,12.529A5.818,5.818,0,1,1,19.821,10.3,5.827,5.827,0,0,1,14,16.116Z"/>
          <path id="Path_70" data-name="Path 70" d="M14,5.719l-1,3.074H9.771l2.617,1.9-1,3.074,2.617-1.9,2.617,1.9-1-3.074,2.617-1.9H15.006Zm.915,5.708L14,10.76l-.915.667.347-1.074-.915-.667H13.65L14,8.612l.347,1.074h1.129l-.915.667Z"/>
        </g>
      </g>
    </g>
  </g>
</svg>
