<svg xmlns="http://www.w3.org/2000/svg" xmlns:xlink="http://www.w3.org/1999/xlink" width="34" height="34" viewBox="0 0 34 34">
  <defs>
    <clipPath id="clip-path">
      <circle id="Ellipse_24" data-name="Ellipse 24" cx="17" cy="17" r="17" transform="translate(0.361 0.365)" fill="#fff" stroke="#707070" stroke-width="1"/>
    </clipPath>
    <linearGradient id="linear-gradient" x1="0.5" y1="1" x2="0.5" gradientUnits="objectBoundingBox">
      <stop offset="0" stop-color="#de9f27"/>
      <stop offset="1" stop-color="#f6d03f"/>
    </linearGradient>
    <clipPath id="clip-path-2">
      <rect id="Rectangle_55" data-name="Rectangle 55" width="26.39" height="13.456"/>
    </clipPath>
    <clipPath id="clip-path-3">
      <rect id="Rectangle_56" data-name="Rectangle 56" width="26.39" height="13.456" transform="translate(26.39 13.456) rotate(180)"/>
    </clipPath>
    <clipPath id="clip-path-4">
      <rect id="Rectangle_57" data-name="Rectangle 57" width="34.452" height="17.567" transform="translate(34.452 17.567) rotate(180)"/>
    </clipPath>
    <linearGradient id="linear-gradient-2" x1="0.5" y1="1" x2="0.5" gradientUnits="objectBoundingBox">
      <stop offset="0" stop-color="#efc230"/>
      <stop offset="1" stop-color="#f8eb67"/>
    </linearGradient>
  </defs>
  <g id="Mask_Group_5" data-name="Mask Group 5" transform="translate(-0.361 -0.365)" clip-path="url(#clip-path)">
    <g id="bid_icon-01" data-name="bid icon-01" transform="translate(0.146 -0.426)">
      <g id="Group_96" data-name="Group 96">
        <circle id="Ellipse_23" data-name="Ellipse 23" cx="17.226" cy="17.226" r="17.226" transform="translate(0)" fill="url(#linear-gradient)"/>
        <g id="Group_87" data-name="Group 87" transform="translate(4.031 3.77)">
          <g id="Group_86" data-name="Group 86" clip-path="url(#clip-path-2)">
            <g id="Group_85" data-name="Group 85" transform="translate(0 0.261)">
              <path id="Path_28" data-name="Path 28" d="M18.225,6.18a11.827,11.827,0,0,1,6.646,2.03,11.927,11.927,0,0,1,4.309,5.232,11.871,11.871,0,0,1-1.1,11.273,11.927,11.927,0,0,1-5.232,4.309,11.871,11.871,0,0,1-11.273-1.1A11.927,11.927,0,0,1,7.27,22.7a11.871,11.871,0,0,1,1.1-11.273A11.927,11.927,0,0,1,13.6,7.114a11.812,11.812,0,0,1,4.627-.934m0-1.306A13.195,13.195,0,1,0,31.419,18.069,13.195,13.195,0,0,0,18.225,4.874Z" transform="translate(-5.03 -4.874)" fill="#dc9e24"/>
            </g>
          </g>
        </g>
        <g id="Group_90" data-name="Group 90" transform="translate(4.031 17.226)">
          <g id="Group_89" data-name="Group 89" clip-path="url(#clip-path-3)">
            <g id="Group_88" data-name="Group 88" transform="translate(0 -13.195)">
              <path id="Path_29" data-name="Path 29" d="M18.225,6.18a11.827,11.827,0,0,1,6.646,2.03,11.927,11.927,0,0,1,4.309,5.232,11.871,11.871,0,0,1-1.1,11.273,11.927,11.927,0,0,1-5.232,4.309,11.871,11.871,0,0,1-11.273-1.1A11.927,11.927,0,0,1,7.27,22.7a11.871,11.871,0,0,1,1.1-11.273A11.927,11.927,0,0,1,13.6,7.114a11.812,11.812,0,0,1,4.627-.934m0-1.306A13.195,13.195,0,1,0,31.419,18.069,13.195,13.195,0,0,0,18.225,4.874Z" transform="translate(-5.03 -4.874)" fill="#f8ed5c"/>
            </g>
          </g>
        </g>
        <g id="Group_93" data-name="Group 93" transform="translate(0 17.224)">
          <g id="Group_92" data-name="Group 92" clip-path="url(#clip-path-4)">
            <g id="Group_91" data-name="Group 91" transform="translate(0 -17.226)">
              <path id="Path_30" data-name="Path 30" d="M18.548,2.265a16.261,16.261,0,0,1,3.251.328,16.031,16.031,0,0,1,5.764,2.426,16.176,16.176,0,0,1,5.843,7.1,16.046,16.046,0,0,1,.939,3.025,16.3,16.3,0,0,1,0,6.5A16.031,16.031,0,0,1,31.92,27.4a16.176,16.176,0,0,1-7.1,5.843,16.046,16.046,0,0,1-3.025.939,16.3,16.3,0,0,1-6.5,0,16.031,16.031,0,0,1-5.764-2.426,16.176,16.176,0,0,1-5.843-7.1,16.046,16.046,0,0,1-.939-3.025,16.3,16.3,0,0,1,0-6.5A16.031,16.031,0,0,1,5.176,9.375a16.176,16.176,0,0,1,7.1-5.843A16.046,16.046,0,0,1,15.3,2.592a16.261,16.261,0,0,1,3.251-.328m0-1.1A17.226,17.226,0,1,0,35.774,18.39,17.226,17.226,0,0,0,18.548,1.164Z" transform="translate(-1.322 -1.164)" fill="#dc9e24"/>
            </g>
          </g>
        </g>
        <g id="Group_94" data-name="Group 94" transform="translate(1.12 0.803)">
          <path id="Path_31" data-name="Path 31" d="M18.458,2.2a15.924,15.924,0,0,1,3.186.321A15.721,15.721,0,0,1,27.3,4.9a15.854,15.854,0,0,1,5.728,6.955,15.726,15.726,0,0,1,.921,2.967,15.964,15.964,0,0,1,0,6.372,15.721,15.721,0,0,1-2.378,5.652,15.856,15.856,0,0,1-6.955,5.728,15.726,15.726,0,0,1-2.967.921,15.964,15.964,0,0,1-6.372,0A15.721,15.721,0,0,1,9.62,31.119a15.855,15.855,0,0,1-5.728-6.955A15.726,15.726,0,0,1,2.971,21.2a15.964,15.964,0,0,1,0-6.372A15.721,15.721,0,0,1,5.35,9.173a15.855,15.855,0,0,1,6.955-5.728,15.726,15.726,0,0,1,2.967-.921A15.924,15.924,0,0,1,18.458,2.2m0-.3A16.106,16.106,0,1,0,34.564,18.011,16.106,16.106,0,0,0,18.458,1.9Z" transform="translate(-2.352 -1.904)" fill="#fff"/>
        </g>
        <g id="Group_95" data-name="Group 95" transform="translate(1.12 1.12)">
          <path id="Path_32" data-name="Path 32" d="M18.458,5.126a13.1,13.1,0,0,1,7.365,2.249,13.222,13.222,0,0,1,4.777,5.8,13.155,13.155,0,0,1-1.214,12.493,13.222,13.222,0,0,1-5.8,4.777A13.155,13.155,0,0,1,11.093,29.23a13.223,13.223,0,0,1-4.777-5.8A13.155,13.155,0,0,1,7.53,10.938a13.222,13.222,0,0,1,5.8-4.777,13.092,13.092,0,0,1,5.128-1.034m0-2.93A16.106,16.106,0,1,0,34.564,18.3,16.106,16.106,0,0,0,18.458,2.2Z" transform="translate(-2.352 -2.196)" fill="url(#linear-gradient-2)"/>
        </g>
      </g>
      <g id="Group_98" data-name="Group 98" transform="translate(7.12 14.442)">
        <g id="Group_97" data-name="Group 97">
          <path id="Path_33" data-name="Path 33" d="M13.182,17.247V15.573L12.058,14.45H7.871v7.176h6.052L15.046,20.5V18.371l-1.124-1.124h-.741Zm.279,2.705-.089.088H9.456V18.833h3.915l.089.088ZM11.6,17.247H9.456V16.035h2.052l.088.089v1.123Z" transform="translate(-7.871 -14.45)" fill="#d59024"/>
          <path id="Path_34" data-name="Path 34" d="M14.724,16.035H16.4v4H14.724v1.586h5.311V20.04H18.356v-4h1.678V14.45H14.724Z" transform="translate(-7.273 -14.45)" fill="#d59024"/>
          <path id="Path_35" data-name="Path 35" d="M25.913,14.45H19.861v7.176h6.052L27.037,20.5V15.573Zm-.462,5.5-.089.088H21.447v-4h3.914l.091.091v3.826Z" transform="translate(-6.825 -14.45)" fill="#d59024"/>
        </g>
      </g>
      <g id="Group_103" data-name="Group 103" transform="translate(7.12 13.434)">
        <g id="Group_102" data-name="Group 102">
          <g id="Group_99" data-name="Group 99" transform="translate(0 0)">
            <path id="Path_36" data-name="Path 36" d="M13.182,16.32V14.646l-1.124-1.124H7.871V20.7h6.052l1.124-1.124V17.444L13.923,16.32h-.741Zm.279,2.705-.089.088H9.456V17.906h3.915l.089.088ZM11.6,16.32H9.456V15.108h2.052l.088.089V16.32Z" transform="translate(-7.871 -13.523)" fill="#fff"/>
          </g>
          <g id="Group_100" data-name="Group 100" transform="translate(7.451)">
            <path id="Path_37" data-name="Path 37" d="M14.724,15.108H16.4v4H14.724V20.7h5.311V19.113H18.356v-4h1.678V13.523H14.724Z" transform="translate(-14.724 -13.523)" fill="#fff"/>
          </g>
          <g id="Group_101" data-name="Group 101" transform="translate(13.036)">
            <path id="Path_38" data-name="Path 38" d="M25.913,13.523H19.861V20.7h6.052l1.124-1.124V14.646Zm-.462,5.5-.089.088H21.447v-4h3.914l.091.091v3.826Z" transform="translate(-19.861 -13.523)" fill="#fff"/>
          </g>
        </g>
      </g>
      <g id="Group_104" data-name="Group 104" transform="translate(7.12 13.807)">
        <path id="Path_39" data-name="Path 39" d="M13.182,16.663V14.99l-1.124-1.124H7.871v7.176h6.052l1.124-1.124V17.787l-1.124-1.124h-.741Zm.279,2.705-.089.088H9.456V18.249h3.915l.089.088ZM11.6,16.663H9.456V15.452h2.052l.088.089v1.123Z" transform="translate(-7.871 -13.866)" fill="#f6e250"/>
        <path id="Path_40" data-name="Path 40" d="M14.724,15.452H16.4v4H14.724v1.586h5.311V19.456H18.356v-4h1.678V13.866H14.724Z" transform="translate(-7.273 -13.866)" fill="#f6e250"/>
        <path id="Path_41" data-name="Path 41" d="M25.913,13.866H19.861v7.176h6.052l1.124-1.124V14.99Zm-.462,5.5-.089.088H21.447v-4h3.914l.091.091v3.826Z" transform="translate(-6.825 -13.866)" fill="#f6e250"/>
      </g>
    </g>
  </g>
</svg>
