<svg width="120" height="32" viewBox="0 0 120 32" fill="none" xmlns="http://www.w3.org/2000/svg">
<g clip-path="url(#clip0)">
<path d="M10.9551 8.47077L15.5044 0H15.6734H25.1786H25.3477L40.8516 30.7805L30.628 30.774L20.426 8.88485L18.823 12.1495L10.9551 8.47077Z" fill="#0099FF"/>
<path d="M0 30.7805L2.93611 24.8009L11.1728 28.879L10.2392 30.7805H0Z" fill="#0099FF"/>
<path d="M10.0718 11.827L10.2039 11.5633C10.2161 11.5391 10.2234 11.5126 10.2254 11.4856C10.2274 11.4585 10.224 11.4313 10.2155 11.4055C10.207 11.3797 10.1935 11.3558 10.1758 11.3353C10.1581 11.3147 10.1365 11.2979 10.1123 11.2857C9.96803 11.213 9.85846 11.0858 9.80771 10.932C9.75696 10.7783 9.76918 10.6107 9.84167 10.466L10.0367 10.0762C10.0726 10.0046 10.1222 9.94073 10.1827 9.88833C10.2433 9.83594 10.3135 9.796 10.3894 9.77081C10.4653 9.74562 10.5454 9.73567 10.6251 9.74153C10.7048 9.74739 10.7827 9.76893 10.8541 9.80495L11.6912 10.2267L17.1225 12.964L17.9797 13.396C18.0511 13.432 18.1148 13.4817 18.167 13.5424C18.2193 13.6031 18.2591 13.6735 18.2842 13.7496C18.3093 13.8257 18.3193 13.906 18.3134 13.986C18.3076 14.0659 18.2861 14.1439 18.2502 14.2156L18.0548 14.6054C17.9823 14.75 17.8555 14.8599 17.7022 14.9108C17.5489 14.9617 17.3817 14.9494 17.2374 14.8767L17.2172 14.8665C17.193 14.8543 17.1666 14.847 17.1396 14.845C17.1126 14.8431 17.0854 14.8464 17.0597 14.855C17.034 14.8635 17.0102 14.8771 16.9897 14.8948C16.9692 14.9126 16.9524 14.9342 16.9403 14.9585L16.8081 15.2221C16.7722 15.2938 16.7226 15.3576 16.6621 15.41C16.6016 15.4624 16.5313 15.5024 16.4554 15.5275C16.3795 15.5527 16.2994 15.5627 16.2197 15.5568C16.1399 15.551 16.0621 15.5294 15.9907 15.4934L10.3423 12.6468C10.2708 12.6108 10.2071 12.561 10.1549 12.5004C10.1026 12.4397 10.0627 12.3692 10.0376 12.2931C10.0125 12.217 10.0026 12.1366 10.0084 12.0567C10.0143 11.9767 10.0358 11.8986 10.0718 11.827Z" fill="#FFCC00"/>
<path d="M11.8175 25.2277L11.6854 25.4914C11.6732 25.5157 11.6659 25.5421 11.6639 25.5692C11.662 25.5963 11.6653 25.6235 11.6738 25.6492C11.6823 25.675 11.6958 25.6989 11.7135 25.7194C11.7312 25.74 11.7528 25.7568 11.777 25.769C11.9212 25.8417 12.0308 25.9689 12.0815 26.1226C12.1323 26.2763 12.1201 26.444 12.0476 26.5886L11.8521 26.9784C11.7796 27.1231 11.6528 27.2329 11.4995 27.2838C11.3462 27.3347 11.179 27.3225 11.0347 27.2498L10.1979 26.828L4.76677 24.0909L3.90961 23.6589C3.83818 23.6229 3.77451 23.5731 3.72225 23.5124C3.67 23.4518 3.63017 23.3814 3.60505 23.3053C3.57993 23.2292 3.57 23.1488 3.57585 23.0689C3.58169 22.9889 3.60318 22.9109 3.63909 22.8393L3.83467 22.4495C3.90718 22.3048 4.03403 22.195 4.18732 22.1441C4.3406 22.0932 4.50777 22.1054 4.65205 22.1781L4.67232 22.1883C4.69652 22.2005 4.72287 22.2078 4.74988 22.2098C4.77689 22.2118 4.80402 22.2084 4.82973 22.1999C4.85544 22.1914 4.87923 22.1779 4.89973 22.1601C4.92022 22.1424 4.93704 22.1208 4.9492 22.0965L5.08134 21.8328C5.15387 21.6881 5.28074 21.5783 5.43405 21.5274C5.58735 21.4765 5.75453 21.4888 5.89883 21.5615L11.5472 24.408C11.6914 24.4808 11.8009 24.6081 11.8516 24.7618C11.9023 24.9155 11.89 25.0831 11.8175 25.2277Z" fill="#FFCC00"/>
<path d="M5.8827 20.184L9.26047 13.4453C9.33301 13.3006 9.45988 13.1908 9.61318 13.1399C9.76648 13.089 9.93367 13.1012 10.078 13.1739L15.7465 16.0304C15.8908 16.1031 16.0003 16.2304 16.0511 16.3841C16.1018 16.5378 16.0896 16.7054 16.0171 16.8501L15.7293 17.4245C15.6462 17.5902 15.6322 17.7822 15.6904 17.9583C15.7485 18.1344 15.874 18.2801 16.0393 18.3634L25.8684 23.3173L29.0871 30.0976L13.8634 22.7037C13.6982 22.6204 13.5067 22.6064 13.3311 22.6647C13.1555 22.723 13.0102 22.8488 12.9271 23.0145L12.6392 23.5886C12.6033 23.6603 12.5537 23.7241 12.4932 23.7765C12.4327 23.8289 12.3625 23.8689 12.2866 23.8941C12.2107 23.9193 12.1306 23.9292 12.0508 23.9234C11.9711 23.9175 11.8933 23.8959 11.8219 23.8599L6.15322 21.0034C6.00898 20.9307 5.89944 20.8035 5.84871 20.6499C5.79798 20.4962 5.8102 20.3286 5.8827 20.184Z" fill="#FFCC00"/>
<path d="M50.924 20.7746H46.6745L45.8637 22.7412H43.6934L47.7728 13.5638H49.8649L53.9574 22.7412H51.7346L50.924 20.7746ZM50.2572 19.162L48.8058 15.6483L47.3544 19.162H50.2572Z" fill="white"/>
<path d="M56.6316 22.2889C55.8774 21.8824 55.2847 21.3186 54.8533 20.5976C54.4219 19.8766 54.2061 19.0616 54.2061 18.1525C54.2061 17.2435 54.4218 16.4285 54.8533 15.7073C55.2848 14.9862 55.8775 14.4224 56.6316 14.0161C57.3854 13.6097 58.2331 13.4065 59.1746 13.4064C59.9677 13.4064 60.6847 13.5463 61.3256 13.826C61.9665 14.1057 62.5047 14.5078 62.9403 15.0322L61.5805 16.2908C60.9615 15.5741 60.1945 15.2158 59.2796 15.2157C58.7128 15.2157 58.2073 15.3402 57.7629 15.5892C57.3253 15.8314 56.9649 16.1927 56.7234 16.6315C56.475 17.0773 56.3508 17.5843 56.3508 18.1524C56.3508 18.7204 56.475 19.2274 56.7234 19.6732C56.9649 20.112 57.3252 20.4734 57.7629 20.7155C58.2074 20.9645 58.713 21.089 59.2796 21.089C60.1949 21.089 60.9618 20.7265 61.5805 20.0014L62.9403 21.26C62.5043 21.7933 61.9637 22.1998 61.3187 22.4795C60.6736 22.7592 59.9545 22.8991 59.1613 22.8991C58.2286 22.8987 57.3854 22.6953 56.6316 22.2889Z" fill="white"/>
<path d="M74.0934 20.7746H69.8439L69.0331 22.7412H66.8628L70.9422 13.5638H73.0343L77.1268 22.7412H74.904L74.0934 20.7746ZM73.4266 19.162L71.9757 15.6483L70.5242 19.162H73.4266Z" fill="white"/>
<path d="M84.8937 15.6877V22.741H82.9583V21.9019C82.6919 22.2051 82.3613 22.4447 81.9907 22.6033C81.6158 22.7649 81.2104 22.8458 80.7745 22.8459C79.8504 22.8459 79.1182 22.5793 78.5779 22.0461C78.0376 21.5129 77.7673 20.7218 77.7671 19.673V15.6877H79.8068V19.3717C79.8068 20.5081 80.2819 21.0763 81.2321 21.0762C81.7201 21.0762 82.1124 20.9167 82.4088 20.5976C82.7053 20.2786 82.8535 19.8044 82.8534 19.1751V15.6877H84.8937Z" fill="white"/>
<path d="M88.1685 22.3806C87.5714 22.0705 87.105 21.64 86.7695 21.0893C86.4339 20.5385 86.2661 19.9135 86.2661 19.2144C86.2661 18.5152 86.4339 17.8903 86.7695 17.3396C87.105 16.7889 87.5714 16.3584 88.1685 16.0482C88.7655 15.738 89.4388 15.5829 90.1886 15.5827C90.9294 15.5827 91.5766 15.7379 92.1303 16.0482C92.684 16.3586 93.0872 16.8021 93.3398 17.3789L91.7577 18.2311C91.3916 17.5845 90.8643 17.2611 90.1756 17.2609C89.6438 17.2609 89.2036 17.4357 88.855 17.7854C88.5064 18.1351 88.3321 18.6114 88.332 19.2144C88.332 19.8176 88.5063 20.2939 88.855 20.6435C89.2036 20.9931 89.6438 21.1679 90.1756 21.1679C90.8729 21.1679 91.4003 20.8445 91.7577 20.1977L93.3398 21.0631C93.0868 21.6225 92.6836 22.0595 92.1303 22.3741C91.577 22.6887 90.9298 22.8462 90.1886 22.8465C89.4389 22.8462 88.7655 22.6909 88.1685 22.3806Z" fill="white"/>
<path d="M99.1581 22.4003C98.9575 22.549 98.7112 22.6605 98.4193 22.7346C98.1178 22.81 97.8082 22.8474 97.4975 22.8461C96.6607 22.8461 96.0135 22.6319 95.5558 22.2036C95.0982 21.7753 94.8694 21.146 94.8694 20.3157V17.4182H93.7847V15.845H94.8694V14.1275H96.9091V15.845H98.6612V17.4182H96.9091V20.2894C96.9091 20.5867 96.9854 20.8162 97.1379 20.9779C97.2904 21.1395 97.5062 21.2203 97.7851 21.2203C98.1076 21.2203 98.3822 21.1329 98.609 20.9582L99.1581 22.4003Z" fill="white"/>
<path d="M100.414 14.3766C100.178 14.1582 100.061 13.8872 100.061 13.5636C100.061 13.24 100.178 12.969 100.414 12.7506C100.649 12.5324 100.954 12.4231 101.329 12.4229C101.704 12.4227 102.009 12.5276 102.244 12.7376C102.479 12.9473 102.597 13.2095 102.597 13.5242C102.597 13.8651 102.479 14.1471 102.244 14.3702C102.009 14.5933 101.704 14.7047 101.329 14.7044C100.954 14.7044 100.649 14.5951 100.414 14.3766ZM100.309 15.6876H102.349V22.741H100.309V15.6876Z" fill="white"/>
<path d="M105.598 22.3806C105.009 22.0705 104.549 21.64 104.218 21.0893C103.887 20.5385 103.721 19.9135 103.721 19.2144C103.721 18.5152 103.887 17.8903 104.218 17.3396C104.549 16.7889 105.009 16.3584 105.598 16.0482C106.186 15.738 106.851 15.5829 107.592 15.5827C108.333 15.5826 108.995 15.7378 109.579 16.0482C110.163 16.3586 110.621 16.7891 110.952 17.3396C111.283 17.8901 111.449 18.515 111.449 19.2144C111.449 19.9138 111.283 20.5388 110.952 21.0893C110.621 21.6397 110.163 22.0702 109.579 22.3806C108.995 22.691 108.332 22.8462 107.592 22.8461C106.851 22.846 106.186 22.6909 105.598 22.3806ZM108.879 20.6369C109.215 20.283 109.383 19.8088 109.383 19.2144C109.383 18.62 109.215 18.1459 108.879 17.792C108.543 17.438 108.114 17.261 107.591 17.2609C107.069 17.2608 106.637 17.4379 106.297 17.792C105.957 18.146 105.787 18.6201 105.787 19.2144C105.787 19.8087 105.957 20.2829 106.297 20.6369C106.637 20.9909 107.068 21.1679 107.591 21.1679C108.114 21.1679 108.544 20.9909 108.879 20.6369Z" fill="white"/>
<path d="M119.196 16.3698C119.732 16.8943 120 17.6722 120 18.7036V22.7416H117.96V19.0176C117.96 18.4583 117.838 18.0409 117.594 17.7651C117.35 17.4893 116.997 17.3517 116.535 17.3521C116.021 17.3521 115.611 17.5116 115.306 17.8306C115.001 18.1495 114.849 18.6237 114.848 19.2531V22.7405H112.809V15.6872H114.757V16.5132C115.027 16.2163 115.363 15.9868 115.764 15.8249C116.165 15.6629 116.605 15.5821 117.084 15.5823C117.956 15.5826 118.66 15.8451 119.196 16.3698Z" fill="white"/>
<path d="M47.6542 30.7761L47.6481 27.6551L46.1041 30.2559H45.8234L44.2792 27.6734V30.7761H43.6934V26.4924H44.1938L45.9759 29.5032L47.7336 26.4924H48.234L48.2401 30.7761H47.6542Z" fill="white"/>
<path d="M51.6426 27.8325C51.8805 28.0529 51.9995 28.3813 51.9995 28.8178V30.7761H51.4441V30.3476C51.3465 30.4986 51.2072 30.6138 51.0261 30.6934C50.845 30.7729 50.6304 30.8127 50.3823 30.8127C50.0201 30.8127 49.7302 30.725 49.5126 30.5496C49.2949 30.3741 49.1861 30.1434 49.186 29.8574C49.186 29.5718 49.2898 29.3423 49.4973 29.169C49.7048 28.9957 50.0344 28.909 50.486 28.909H51.4137V28.7933C51.4137 28.5404 51.3406 28.3466 51.1945 28.212C51.0484 28.0774 50.8328 28.0101 50.5475 28.0101C50.3564 28.01 50.1667 28.0421 49.9861 28.1049C49.8031 28.1681 49.6485 28.2528 49.5223 28.3589L49.2782 27.9182C49.4449 27.7837 49.6443 27.6806 49.8762 27.6092C50.1157 27.5367 50.3646 27.5007 50.6147 27.5021C51.0618 27.5021 51.4044 27.6123 51.6426 27.8325ZM51.0597 30.21C51.2223 30.1101 51.3403 29.9683 51.4137 29.7847V29.3318H50.5108C50.0141 29.3318 49.7659 29.4991 49.7663 29.8337C49.7663 29.9968 49.8294 30.1253 49.9554 30.2192C50.0815 30.3131 50.2565 30.36 50.4804 30.3599C50.7037 30.3599 50.8968 30.3099 51.0597 30.21Z" fill="white"/>
<path d="M55.7928 27.8601C56.0349 28.0987 56.1559 28.4486 56.1559 28.9096V30.7761H55.5701V28.9769C55.5701 28.6627 55.4948 28.4261 55.3443 28.267C55.1937 28.108 54.9782 28.0284 54.6978 28.0284C54.3805 28.0284 54.1303 28.1212 53.9471 28.3068C53.764 28.4924 53.6725 28.7586 53.6726 29.1054V30.7761H53.0859V27.5327H53.6475V28.0223C53.7654 27.8551 53.9251 27.7265 54.1265 27.6368C54.328 27.547 54.5569 27.5021 54.8132 27.5022C55.2241 27.5022 55.5507 27.6215 55.7928 27.8601Z" fill="white"/>
<path d="M60.3549 27.5327V30.3355C60.3549 30.9024 60.2145 31.3216 59.9337 31.5931C59.6529 31.8645 59.2339 32 58.6765 31.9996C58.3811 32.0009 58.087 31.9587 57.8038 31.8741C57.5271 31.7904 57.3033 31.671 57.1325 31.5161L57.4132 31.0633C57.5636 31.1938 57.7499 31.2968 57.972 31.3724C58.1931 31.4477 58.4251 31.4859 58.6586 31.4855C59.0369 31.4855 59.3166 31.3958 59.4978 31.2162C59.6789 31.0367 59.7694 30.7634 59.7693 30.3962V30.1392C59.6331 30.305 59.458 30.4343 59.2597 30.5155C59.0583 30.5992 58.8396 30.6411 58.6037 30.641C58.2943 30.641 58.0146 30.5747 57.7645 30.4421C57.5202 30.3153 57.3162 30.1223 57.1756 29.8852C57.033 29.6466 56.9618 29.3743 56.9619 29.0683C56.9621 28.7623 57.0333 28.49 57.1756 28.2513C57.3159 28.0148 57.5201 27.823 57.7646 27.6979C58.0147 27.5674 58.2944 27.5022 58.6038 27.5022C58.8479 27.5022 59.0747 27.547 59.2842 27.6368C59.4878 27.722 59.6656 27.8591 59.7999 28.0346V27.5327H60.3549ZM59.241 29.993C59.4058 29.9072 59.5432 29.7768 59.6378 29.6166C59.7333 29.4555 59.7811 29.2729 59.7812 29.0689C59.7812 28.7549 59.6775 28.5009 59.4699 28.307C59.2624 28.1132 58.9958 28.0163 58.6701 28.0163C58.3405 28.0163 58.072 28.1132 57.8645 28.307C57.6571 28.5008 57.5533 28.7548 57.5533 29.0689C57.5533 29.273 57.6011 29.4556 57.6967 29.6166C57.7911 29.7768 57.9286 29.9072 58.0933 29.993C58.262 30.0828 58.4543 30.1277 58.67 30.1276C58.8818 30.1274 59.0722 30.0826 59.241 29.993Z" fill="white"/>
<path d="M63.1133 26.2356H63.6991V30.7763H63.1133V26.2356Z" fill="white"/>
<path d="M67.0225 27.8325C67.2604 28.0529 67.3794 28.3813 67.3794 28.8178V30.7761H66.824V30.3476C66.7264 30.4986 66.5871 30.6139 66.406 30.6934C66.2249 30.7729 66.0103 30.8127 65.7622 30.8127C65.4 30.8127 65.11 30.725 64.8924 30.5496C64.6748 30.3742 64.566 30.1434 64.5659 29.8574C64.5659 29.5718 64.6697 29.3423 64.8772 29.169C65.0847 28.9957 65.4143 28.909 65.8658 28.909H66.7931V28.7933C66.7931 28.5404 66.7199 28.3466 66.5734 28.212C66.427 28.0774 66.2113 28.0101 65.9264 28.0101C65.7353 28.01 65.5456 28.0421 65.365 28.1049C65.182 28.1681 65.0274 28.2528 64.9012 28.3589L64.6571 27.9182C64.8238 27.7837 65.0232 27.6806 65.2551 27.6092C65.4946 27.5367 65.7435 27.5007 65.9936 27.5021C66.4414 27.5021 66.7843 27.6123 67.0225 27.8325ZM66.4395 30.21C66.6022 30.1102 66.7201 29.9682 66.7931 29.7843V29.3314H65.8903C65.3936 29.3314 65.1452 29.4987 65.1452 29.8333C65.1452 29.9964 65.2082 30.1249 65.3343 30.2188C65.4604 30.3127 65.6354 30.3596 65.8593 30.3595C66.0833 30.3598 66.2767 30.31 66.4395 30.21ZM65.8048 31.8898C65.7437 31.8327 65.7133 31.7593 65.7133 31.6695C65.7123 31.6275 65.72 31.5858 65.7357 31.5468C65.7514 31.5079 65.7749 31.4726 65.8048 31.4431C65.8336 31.414 65.8678 31.391 65.9055 31.3752C65.9433 31.3595 65.9837 31.3514 66.0246 31.3514C66.0654 31.3514 66.1059 31.3595 66.1436 31.3752C66.1813 31.391 66.2155 31.414 66.2443 31.4431C66.2742 31.4726 66.2977 31.5079 66.3134 31.5468C66.3292 31.5858 66.3368 31.6275 66.3358 31.6695C66.3358 31.7592 66.3053 31.8326 66.2443 31.8898C66.1843 31.9449 66.1059 31.9755 66.0246 31.9755C65.9432 31.9755 65.8648 31.9449 65.8048 31.8898Z" fill="white"/>
<path d="M68.4747 26.7984C68.4382 26.7639 68.4093 26.7221 68.3899 26.6757C68.3705 26.6293 68.3609 26.5794 68.3619 26.5291C68.3611 26.4784 68.3707 26.4281 68.3902 26.3812C68.4096 26.3344 68.4384 26.2921 68.4747 26.2569C68.5501 26.1814 68.6446 26.1437 68.7585 26.1436C68.8724 26.1435 68.967 26.1792 69.0423 26.2507C69.0789 26.2845 69.1079 26.3257 69.1274 26.3716C69.1468 26.4175 69.1564 26.467 69.1553 26.5169C69.1564 26.5686 69.147 26.6199 69.1275 26.6678C69.1081 26.7157 69.0791 26.7591 69.0423 26.7953C68.9671 26.8709 68.8725 26.9086 68.7585 26.9086C68.6446 26.9085 68.55 26.8718 68.4747 26.7984ZM68.4655 27.5327H69.0515V30.7761H68.4655V27.5327Z" fill="white"/>
<path d="M74.9042 27.5327V30.3354C74.9042 30.9024 74.7638 31.3216 74.483 31.5931C74.2023 31.8645 73.7832 32 73.2258 31.9995C72.9303 32.0009 72.6362 31.9587 72.353 31.8741C72.0764 31.7904 71.8526 31.671 71.6817 31.516L71.9624 31.0633C72.113 31.1938 72.2992 31.2968 72.5212 31.3723C72.7423 31.4476 72.9743 31.4859 73.2078 31.4855C73.5862 31.4855 73.866 31.3957 74.047 31.2162C74.228 31.0367 74.3185 30.7634 74.3186 30.3962V30.1392C74.1824 30.305 74.0073 30.4343 73.809 30.5155C73.6076 30.5992 73.3889 30.641 73.1529 30.641C72.8437 30.641 72.564 30.5747 72.3137 30.4421C72.0694 30.3152 71.8655 30.1223 71.7248 29.8852C71.5823 29.6466 71.5112 29.3743 71.5112 29.0683C71.5113 28.7623 71.5825 28.4899 71.7248 28.2513C71.8651 28.0147 72.0693 27.8227 72.3137 27.6975C72.564 27.567 72.8437 27.5017 73.1529 27.5017C73.397 27.5017 73.6239 27.5466 73.8334 27.6363C74.037 27.7215 74.2148 27.8586 74.3492 28.0341V27.5323L74.9042 27.5327ZM73.7904 29.993C73.9551 29.9072 74.0926 29.7768 74.1871 29.6166C74.2827 29.4555 74.3305 29.2729 74.3305 29.0689C74.3305 28.7549 74.2268 28.5009 74.0192 28.307C73.8117 28.1131 73.5451 28.0162 73.2194 28.0163C72.8898 28.0163 72.6213 28.1132 72.4137 28.307C72.2062 28.5008 72.1025 28.7548 72.1026 29.0689C72.1026 29.273 72.1504 29.4555 72.246 29.6166C72.3405 29.7768 72.4779 29.9072 72.6426 29.993C72.8114 30.0828 73.0037 30.1276 73.2194 30.1276C73.4311 30.1274 73.6214 30.0826 73.7904 29.993Z" fill="white"/>
<path d="M76.0305 26.7984C75.994 26.7639 75.9651 26.7221 75.9456 26.6757C75.9262 26.6293 75.9166 26.5794 75.9175 26.5291C75.9168 26.4784 75.9264 26.4281 75.9459 26.3812C75.9653 26.3344 75.9941 26.2921 76.0305 26.2569C76.1057 26.1814 76.2003 26.1437 76.3143 26.1436C76.4283 26.1435 76.5229 26.1792 76.5981 26.2507C76.6346 26.2845 76.6636 26.3257 76.6831 26.3716C76.7025 26.4175 76.712 26.467 76.7109 26.5169C76.7121 26.5686 76.7026 26.6199 76.6832 26.6678C76.6638 26.7157 76.6348 26.7591 76.5981 26.7953C76.5227 26.8709 76.4281 26.9086 76.3143 26.9086C76.2005 26.9085 76.1059 26.8718 76.0305 26.7984ZM76.0213 27.5327H76.6072V30.7761H76.0213V27.5327Z" fill="white"/>
<path d="M79.9303 27.8325C80.1683 28.0529 80.2873 28.3813 80.2874 28.8178V30.7761H79.732V30.3476C79.6344 30.4986 79.495 30.6138 79.3139 30.6934C79.1327 30.7729 78.9182 30.8127 78.6703 30.8128C78.308 30.8128 78.0182 30.7251 77.8006 30.5497C77.5831 30.3743 77.4743 30.1435 77.4741 29.8575C77.4741 29.5719 77.5778 29.3424 77.7853 29.1691C77.9927 28.9958 78.3223 28.9091 78.774 28.9091H79.7016V28.7933C79.7016 28.5404 79.6284 28.3466 79.4819 28.212C79.3355 28.0774 79.12 28.01 78.8355 28.01C78.6444 28.01 78.4546 28.0421 78.2741 28.1049C78.0909 28.1681 77.9362 28.2528 77.8102 28.3589L77.566 27.9182C77.7328 27.7837 77.9322 27.6806 78.1642 27.6092C78.4036 27.5367 78.6526 27.5007 78.9027 27.5021C79.3496 27.5021 79.6921 27.6123 79.9303 27.8325ZM79.3475 30.21C79.5101 30.1101 79.6281 29.9683 79.7014 29.7847V29.3318H78.7982C78.3015 29.3318 78.0532 29.4991 78.0532 29.8337C78.0532 29.9968 78.1163 30.1253 78.2424 30.2192C78.3686 30.3131 78.5435 30.36 78.7672 30.3599C78.9911 30.3599 79.1845 30.3099 79.3473 30.21H79.3475ZM79.3169 26.2658H80.062L79.0367 27.0614H78.4874L79.3169 26.2658Z" fill="white"/>
<path d="M84.8337 30.5862C84.7483 30.6595 84.6424 30.7156 84.516 30.7546C84.3894 30.7933 84.2577 30.8129 84.1254 30.8127C83.7998 30.8127 83.5476 30.725 83.3686 30.5496C83.1896 30.3741 83.1001 30.1232 83.1 29.7968V28.0161H82.5508V27.5327H83.1V26.8228H83.686V27.5327H84.6136V28.0161H83.686V29.7725C83.686 29.9483 83.7298 30.0829 83.8175 30.1763C83.9052 30.2698 84.0303 30.3167 84.1929 30.3171C84.3718 30.3171 84.5243 30.2661 84.6505 30.1641L84.8337 30.5862Z" fill="white"/>
<path d="M86.5546 27.6489C86.7538 27.5511 86.9959 27.5022 87.2809 27.5022V28.0713C87.2363 28.0666 87.1914 28.0645 87.1466 28.0651C86.8292 28.0651 86.5801 28.16 86.399 28.3497C86.2179 28.5394 86.1274 28.8096 86.1274 29.1605V30.7761H85.5415V27.5327H86.1029V28.0773C86.2046 27.8896 86.3551 27.7468 86.5546 27.6489Z" fill="white"/>
<path d="M88.01 26.7984C87.9735 26.7639 87.9446 26.7221 87.9251 26.6757C87.9057 26.6293 87.8961 26.5794 87.897 26.5291C87.8963 26.4784 87.9059 26.4281 87.9254 26.3812C87.9448 26.3344 87.9736 26.2921 88.01 26.2569C88.0852 26.1814 88.1798 26.1437 88.2938 26.1436C88.4078 26.1435 88.5024 26.1792 88.5776 26.2507C88.6142 26.2845 88.6431 26.3257 88.6626 26.3716C88.682 26.4175 88.6915 26.467 88.6904 26.5169C88.6916 26.5686 88.6822 26.6199 88.6628 26.6678C88.6434 26.7157 88.6144 26.7591 88.5776 26.7953C88.5023 26.8709 88.4077 26.9086 88.2938 26.9086C88.1799 26.9085 88.0853 26.8718 88.01 26.7984ZM88.0741 31.8898C88.013 31.8327 87.9825 31.7593 87.9825 31.6695C87.9815 31.6275 87.9892 31.5858 88.0049 31.5468C88.0207 31.5079 88.0442 31.4726 88.0741 31.4431C88.1029 31.414 88.1371 31.391 88.1748 31.3752C88.2125 31.3595 88.253 31.3514 88.2938 31.3514C88.3346 31.3514 88.3751 31.3595 88.4128 31.3752C88.4505 31.391 88.4847 31.414 88.5135 31.4431C88.5434 31.4726 88.5669 31.5079 88.5827 31.5468C88.5984 31.5858 88.6061 31.6275 88.6051 31.6695C88.6051 31.7592 88.5746 31.8326 88.5135 31.8898C88.4535 31.9449 88.3751 31.9755 88.2938 31.9755C88.2125 31.9755 88.1341 31.9449 88.0741 31.8898ZM88.0008 27.5327H88.5868V30.7761H88.0008V27.5327Z" fill="white"/>
<path d="M94.3969 26.2356V30.7763H93.8355V30.2623C93.7084 30.4391 93.5382 30.5803 93.3411 30.6723C93.1417 30.7661 92.9219 30.813 92.6819 30.813C92.3686 30.813 92.0878 30.7437 91.8398 30.6049C91.5944 30.4691 91.3923 30.2666 91.2569 30.0206C91.1165 29.7696 91.0463 29.481 91.0464 29.1546C91.0465 28.8282 91.1166 28.5406 91.2569 28.2917C91.3931 28.047 91.595 27.8456 91.8398 27.7103C92.0881 27.5718 92.3688 27.5025 92.6819 27.5024C92.9138 27.5024 93.1275 27.5463 93.3228 27.6342C93.5157 27.7202 93.6837 27.8539 93.811 28.0228V26.2356H94.3969ZM93.2864 30.1549C93.4521 30.0601 93.5876 29.9201 93.677 29.7511C93.7705 29.5777 93.8173 29.3788 93.8174 29.1544C93.8174 28.93 93.7707 28.7311 93.677 28.5577C93.5881 28.3892 93.4524 28.25 93.2864 28.1569C93.1196 28.0631 92.9344 28.0162 92.731 28.0161C92.5235 28.0161 92.3372 28.063 92.1722 28.1569C92.0071 28.2511 91.8717 28.39 91.7817 28.5577C91.6861 28.7312 91.6383 28.9301 91.6383 29.1544C91.6383 29.3787 91.6861 29.5776 91.7817 29.7511C91.8722 29.9193 92.0073 30.059 92.1722 30.1549C92.337 30.2509 92.5233 30.2988 92.731 30.2987C92.9342 30.2987 93.1194 30.2508 93.2864 30.1549ZM92.5358 26.6882H94.9518V27.1043H92.5355L92.5358 26.6882Z" fill="white"/>
<path d="M96.1733 26.266H96.9178L95.8925 27.0615H95.3433L96.1733 26.266ZM95.5079 27.5327H96.0939V30.7761H95.5079V27.5327Z" fill="white"/>
<path d="M97.7386 30.5986C97.4859 30.4614 97.2757 30.2571 97.1312 30.0081C96.9852 29.7571 96.9121 29.4726 96.9121 29.1544C96.9121 28.8362 96.9852 28.5517 97.1312 28.3007C97.2753 28.0521 97.4856 27.8487 97.7386 27.7132C97.9968 27.5724 98.2907 27.5021 98.6204 27.5022C98.9134 27.5022 99.1748 27.5613 99.4047 27.6796C99.6299 27.7936 99.816 27.9726 99.9387 28.1937L99.4931 28.4813C99.3914 28.3262 99.2653 28.2099 99.1148 28.1325C98.9642 28.055 98.7974 28.0162 98.6144 28.0161C98.4025 28.0161 98.2123 28.0631 98.0437 28.157C97.8759 28.2496 97.7382 28.3888 97.647 28.5577C97.5513 28.7312 97.5035 28.9301 97.5036 29.1544C97.5036 29.3829 97.5514 29.5838 97.647 29.7571C97.7381 29.9262 97.8759 30.0653 98.0437 30.158C98.2125 30.2519 98.4027 30.2988 98.6144 30.2988C98.7975 30.2988 98.9643 30.26 99.1148 30.1825C99.2652 30.105 99.3914 29.9888 99.4931 29.8337L99.9387 30.1152C99.8156 30.3367 99.6297 30.5166 99.4047 30.6323C99.1747 30.7526 98.9132 30.8127 98.6204 30.8128C98.2908 30.8128 97.9969 30.7414 97.7386 30.5986Z" fill="white"/>
<path d="M103.359 27.8601C103.602 28.0987 103.723 28.4486 103.723 28.9096V30.7761H103.137V28.9769C103.137 28.6627 103.062 28.4261 102.911 28.267C102.76 28.1079 102.545 28.0284 102.265 28.0284C101.947 28.0284 101.697 28.1212 101.514 28.3068C101.331 28.4924 101.239 28.7586 101.239 29.1054V30.7761H100.653V26.2356H101.239V27.9919C101.361 27.8369 101.521 27.7166 101.718 27.6308C101.916 27.545 102.136 27.5022 102.381 27.5024C102.791 27.5022 103.117 27.6215 103.359 27.8601Z" fill="white"/>
<path d="M108.269 30.5862C108.184 30.6595 108.078 30.7156 107.952 30.7546C107.825 30.7933 107.693 30.8129 107.561 30.8127C107.235 30.8127 106.983 30.725 106.804 30.5496C106.625 30.3741 106.536 30.1232 106.536 29.7968V28.0161H105.986V27.5327H106.536V26.8228H107.121V27.5327H108.049V28.0161H107.121V29.7725C107.121 29.9483 107.165 30.0829 107.253 30.1763C107.341 30.2698 107.466 30.3167 107.628 30.3171C107.807 30.3171 107.96 30.2661 108.086 30.1641L108.269 30.5862Z" fill="white"/>
<path d="M111.684 27.8601C111.926 28.0987 112.047 28.4486 112.047 28.9096V30.7761H111.461V28.9769C111.461 28.6627 111.386 28.4261 111.236 28.267C111.085 28.1079 110.87 28.0284 110.589 28.0284C110.272 28.0284 110.021 28.1212 109.838 28.3068C109.655 28.4924 109.564 28.7586 109.564 29.1054V30.7761H108.977V26.2356H109.563V27.9919C109.685 27.8369 109.845 27.7166 110.042 27.6308C110.239 27.545 110.46 27.5022 110.704 27.5024C111.115 27.5022 111.442 27.6215 111.684 27.8601Z" fill="white"/>
<path d="M116.148 27.5327V30.7761H115.593V30.2865C115.474 30.4548 115.313 30.5887 115.126 30.6751C114.933 30.7668 114.722 30.8127 114.495 30.8128C114.064 30.8128 113.724 30.6935 113.476 30.4548C113.227 30.2161 113.103 29.8642 113.103 29.3992V27.5327H113.689V29.3318C113.689 29.646 113.764 29.8837 113.915 30.0447C114.065 30.2058 114.281 30.2864 114.561 30.2864C114.87 30.2864 115.115 30.1926 115.294 30.0049C115.473 29.8171 115.562 29.552 115.562 29.2093V27.5327H116.148ZM114.409 31.8898C114.348 31.8327 114.318 31.7592 114.318 31.6695C114.317 31.6275 114.324 31.5858 114.34 31.5468C114.356 31.5079 114.379 31.4726 114.409 31.4431C114.438 31.414 114.472 31.391 114.51 31.3752C114.548 31.3595 114.588 31.3514 114.629 31.3514C114.67 31.3514 114.71 31.3595 114.748 31.3752C114.786 31.391 114.82 31.414 114.849 31.4431C114.878 31.4726 114.902 31.5079 114.918 31.5468C114.933 31.5858 114.941 31.6275 114.94 31.6695C114.94 31.7592 114.91 31.8326 114.849 31.8898C114.789 31.9449 114.71 31.9755 114.629 31.9755C114.547 31.9755 114.469 31.9449 114.409 31.8898ZM115.752 27.5327H115.861C115.992 27.5327 116.089 27.4961 116.154 27.4228C116.22 27.3496 116.252 27.2537 116.252 27.1353C116.252 26.9884 116.211 26.8598 116.13 26.7497L116.503 26.6089C116.616 26.7641 116.673 26.9456 116.673 27.1537C116.673 27.4066 116.601 27.6075 116.457 27.7564C116.312 27.9052 116.114 27.9797 115.862 27.9797H115.752L115.752 27.5327Z" fill="white"/>
<path d="M117.8 30.5986C117.547 30.4614 117.337 30.2571 117.193 30.0081C117.046 29.7571 116.973 29.4726 116.974 29.1544C116.974 28.8362 117.047 28.5517 117.193 28.3007C117.337 28.0521 117.547 27.8487 117.8 27.7132C118.058 27.5724 118.352 27.5021 118.682 27.5022C118.975 27.5022 119.236 27.5613 119.466 27.6796C119.691 27.7936 119.877 27.9726 120 28.1937L119.555 28.4813C119.453 28.3262 119.327 28.2099 119.176 28.1325C119.026 28.055 118.859 28.0162 118.676 28.0161C118.464 28.0161 118.274 28.0631 118.105 28.157C117.937 28.2497 117.8 28.3888 117.709 28.5577C117.613 28.7312 117.565 28.9301 117.565 29.1544C117.565 29.3829 117.613 29.5838 117.709 29.7571C117.8 29.9261 117.937 30.0653 118.105 30.158C118.274 30.2519 118.464 30.2988 118.676 30.2988C118.859 30.2988 119.026 30.26 119.176 30.1825C119.327 30.105 119.453 29.9888 119.555 29.8337L120 30.1152C119.877 30.3367 119.691 30.5166 119.466 30.6323C119.236 30.7526 118.975 30.8127 118.682 30.8128C118.352 30.8128 118.058 30.7414 117.8 30.5986Z" fill="white"/>
</g>
<defs>
<clipPath id="clip0">
<rect width="120" height="32" fill="white"/>
</clipPath>
</defs>
</svg>
