<svg xmlns="http://www.w3.org/2000/svg" xmlns:xlink="http://www.w3.org/1999/xlink" width="30" height="28" viewBox="0 0 30 28">
  <defs>
    <clipPath id="clip-path">
      <rect id="Rectangle_92" data-name="Rectangle 92" width="30" height="28" transform="translate(91 1061)" fill="#464646" stroke="#707070" stroke-width="1"/>
    </clipPath>
  </defs>
  <g id="Mask_Group_13" data-name="Mask Group 13" transform="translate(-91 -1061)" clip-path="url(#clip-path)">
    <g id="auction" transform="translate(92 1061)">
      <g id="Group_150" data-name="Group 150">
        <g id="Group_149" data-name="Group 149">
          <path id="Path_58" data-name="Path 58" d="M6.441,9.535a.547.547,0,1,0,0,.773A.547.547,0,0,0,6.441,9.535Z" fill="#464646"/>
        </g>
      </g>
      <g id="Group_152" data-name="Group 152">
        <g id="Group_151" data-name="Group 151">
          <path id="Path_59" data-name="Path 59" d="M13.847,24.485A1.915,1.915,0,0,0,12.3,21.437h-9.3a1.913,1.913,0,0,0-1.541,3.047A2.737,2.737,0,0,0,0,26.906v.547A.547.547,0,0,0,.547,28H14.765a.547.547,0,0,0,.547-.547v-.547A2.736,2.736,0,0,0,13.847,24.485ZM2.428,22.771a.815.815,0,0,1,.58-.24h9.3a.82.82,0,1,1,0,1.641h-9.3a.82.82,0,0,1-.58-1.4ZM1.094,26.906a1.642,1.642,0,0,1,1.641-1.641h9.843a1.642,1.642,0,0,1,1.641,1.641Z" fill="#464646"/>
        </g>
      </g>
      <g id="Group_154" data-name="Group 154">
        <g id="Group_153" data-name="Group 153">
          <path id="Path_60" data-name="Path 60" d="M27.491,22.976a3.444,3.444,0,0,0-.659-.756l-2.555-2.229a.543.543,0,0,0-.218-.19l-1.545-1.348-7.153-6.239a1.638,1.638,0,0,0-.48-2.612l.662-.662a2.189,2.189,0,0,0,2.112-.565,2.187,2.187,0,0,0,0-3.094L13.015.641A2.187,2.187,0,0,0,9.356,2.753l-6.6,6.6a2.2,2.2,0,0,0-.566-.074A2.187,2.187,0,0,0,.641,13.015l4.64,4.64A2.187,2.187,0,0,0,8.94,15.543l.66-.66a1.641,1.641,0,0,0,2.613.479l7.618,8.753a.549.549,0,0,0,.074.093l.031.028,2.27,2.608c.056.067.117.132.179.195A3.253,3.253,0,0,0,24.7,28a3.357,3.357,0,0,0,.46-.032,3.309,3.309,0,0,0,2.441-1.69A3.236,3.236,0,0,0,27.491,22.976ZM10.694,1.414a1.093,1.093,0,0,1,1.547,0l4.64,4.64A1.094,1.094,0,0,1,15.335,7.6l-4.64-4.64h0A1.1,1.1,0,0,1,10.694,1.414ZM7.6,16.882a1.1,1.1,0,0,1-1.547,0l-4.64-4.64A1.094,1.094,0,0,1,2.96,10.694L7.6,15.335A1.094,1.094,0,0,1,7.6,16.882Zm2.3-3.849L8.375,14.562,3.734,9.921,9.921,3.734l4.641,4.641L13.03,9.907l-.015.014L9.923,13.013Zm1.953,1.141,0,0-.385.385a.547.547,0,0,1-.78-.767l3.106-3.106a.547.547,0,0,1,.928.393.542.542,0,0,1-.16.387l-.383.383-.008.008Zm1.132.414,1.6-1.6,6.767,5.9-2.469,2.469Zm6.616,7.6,2.576-2.576.826.721-2.682,2.682Zm7.04,3.555a2.224,2.224,0,0,1-1.637,1.141,2.173,2.173,0,0,1-1.849-.62c-.042-.042-.082-.086-.12-.13l-.005-.006-1.99-2.286,2.789-2.789,2.283,1.992.005,0a2.354,2.354,0,0,1,.451.519A2.159,2.159,0,0,1,26.645,25.744Z" fill="#464646"/>
        </g>
      </g>
      <g id="Group_156" data-name="Group 156">
        <g id="Group_155" data-name="Group 155">
          <path id="Path_61" data-name="Path 61" d="M10.308,5.668a.547.547,0,0,0-.773,0l-2.32,2.32a.547.547,0,0,0,.773.773l2.32-2.32A.547.547,0,0,0,10.308,5.668Z" fill="#464646"/>
        </g>
      </g>
    </g>
  </g>
</svg>
