<svg width="12" height="14" viewBox="0 0 12 14" fill="none" xmlns="http://www.w3.org/2000/svg">
<path d="M5.99968 7.59984C6.99378 7.59984 7.79966 6.79397 7.79966 5.79987C7.79966 4.80577 6.99378 3.99989 5.99968 3.99989C5.00558 3.99989 4.19971 4.80577 4.19971 5.79987C4.19971 6.79397 5.00558 7.59984 5.99968 7.59984Z" stroke="#403946" stroke-linecap="round" stroke-linejoin="round"/>
<path d="M5.99964 1C4.72662 1 3.50574 1.50571 2.60558 2.40587C1.70541 3.30603 1.19971 4.52691 1.19971 5.79994C1.19971 6.93512 1.4409 7.67791 2.09969 8.4999L5.99964 12.9998L9.89959 8.4999C10.5584 7.67791 10.7996 6.93512 10.7996 5.79994C10.7996 4.52691 10.2939 3.30603 9.39371 2.40587C8.49355 1.50571 7.27266 1 5.99964 1V1Z" stroke="#403946" stroke-linecap="round" stroke-linejoin="round"/>
</svg>
