<svg width="20" height="20" viewBox="0 0 20 20" fill="none" xmlns="http://www.w3.org/2000/svg">
<path d="M17.7141 9.13484C18.1091 9.6515 18.1091 10.349 17.7141 10.8648C16.4699 12.489 13.4849 15.8332 9.99993 15.8332C6.51493 15.8332 3.52993 12.489 2.28576 10.8648C2.09358 10.6174 1.98926 10.3131 1.98926 9.99984C1.98926 9.68657 2.09358 9.38223 2.28576 9.13484C3.52993 7.51067 6.51493 4.1665 9.99993 4.1665C13.4849 4.1665 16.4699 7.51067 17.7141 9.13484V9.13484Z" stroke="#7D7882" stroke-linecap="round" stroke-linejoin="round"/>
<path d="M10 12.5C11.3807 12.5 12.5 11.3807 12.5 10C12.5 8.61929 11.3807 7.5 10 7.5C8.61929 7.5 7.5 8.61929 7.5 10C7.5 11.3807 8.61929 12.5 10 12.5Z" stroke="#7D7882" stroke-linecap="round" stroke-linejoin="round"/>
</svg>
