<svg width="21" height="19" viewBox="0 0 21 19" fill="none" xmlns="http://www.w3.org/2000/svg">
<path d="M20.8193 4.29089C20.6983 3.80345 20.5115 3.33587 20.2644 2.90178C20.027 2.45021 19.7235 2.03895 19.3644 1.68245C18.8439 1.14862 18.2275 0.724016 17.5496 0.432256C16.1849 -0.144085 14.6545 -0.144085 13.2898 0.432256C12.649 0.711372 12.0603 1.10307 11.5499 1.58985L11.4749 1.68245L10.5 2.6857L9.52506 1.68245L9.45006 1.58985C8.93972 1.10307 8.35098 0.711372 7.71017 0.432256C6.34549 -0.144085 4.81512 -0.144085 3.45044 0.432256C2.77246 0.724016 2.15606 1.14862 1.63555 1.68245C0.923642 2.39527 0.419686 3.29879 0.180644 4.29089C0.0534748 4.7947 -0.00706734 5.31387 0.000655575 5.83434C0.000655575 6.32362 0.0606518 6.81135 0.180644 7.28519C0.306387 7.76373 0.487681 8.22494 0.72061 8.65886C0.972167 9.10493 1.2798 9.51491 1.63555 9.87819L10.5 19L19.3644 9.87819C19.7199 9.51856 20.0244 9.10646 20.2644 8.65886C20.7515 7.80241 21.0054 6.8267 20.9993 5.83434C21.0071 5.31387 20.9466 4.79469 20.8193 4.29089ZM19.3194 6.80672C19.1398 7.51195 18.7828 8.15607 18.2845 8.6743L10.47 16.7003L2.65549 8.6743C2.40084 8.41039 2.17914 8.11486 1.99553 7.79453C1.82275 7.47762 1.68682 7.14089 1.59056 6.79128C1.5137 6.44172 1.47347 6.08469 1.47056 5.7263C1.4726 5.35767 1.51282 4.99031 1.59056 4.63045C1.684 4.27984 1.82007 3.94276 1.99553 3.6272C2.17552 3.30308 2.3975 3.00982 2.65549 2.74744C3.04081 2.35624 3.49348 2.04221 3.9904 1.82136C4.99176 1.40914 6.10885 1.40914 7.11021 1.82136C7.60518 2.03282 8.05215 2.34305 8.43013 2.732L10.47 4.84653L12.5099 2.732C12.8876 2.34236 13.3361 2.03295 13.8298 1.82136C14.8311 1.40914 15.9482 1.40914 16.9496 1.82136C17.4461 2.04208 17.899 2.35694 18.2845 2.74744C18.5455 3.00211 18.7645 3.29845 18.9295 3.6272C19.2769 4.25765 19.4579 4.97069 19.4544 5.69543C19.4748 6.06837 19.4445 6.4424 19.3644 6.80672H19.3194Z" fill="#DDDDDD"/>
</svg>
