<svg width="12" height="12" viewBox="0 0 12 12" fill="none" xmlns="http://www.w3.org/2000/svg">
<path fill-rule="evenodd" clip-rule="evenodd" d="M8.28779 1.57682V2.96655L9.20661 2.0846V0.445428L8.7472 0H0.477788L0.0183765 0.445428V0.878385L0 0.890857V10.0578L0.330776 10.4676L4.9249 11.9998L5.51294 11.5811V10.6903H8.7472L9.20661 10.2449V8.6324L8.28779 7.74154V9.79942H5.51294V2.41422L5.20973 2.00443L1.87072 0.890857H8.28779V1.57682ZM4.59412 10.9397L0.918824 9.74597V1.53227L4.59412 2.72602V10.9397ZM10.5848 5.77275H6.0183V4.88189H10.5481L9.07798 3.45652L9.73034 2.83292L11.9998 5.02443V5.65694L9.71197 7.86626L9.06879 7.24266L10.5848 5.77275Z" fill="#403946"/>
</svg>
