<svg width="207" height="52" viewBox="0 0 207 52" fill="none" xmlns="http://www.w3.org/2000/svg">
<path d="M72.7056 12.9673L69.1096 38.5994H65.1217L65.4772 36.0016C64.6186 36.9525 63.5703 37.7131 62.3999 38.2343C61.2295 38.7556 59.9629 39.0259 58.6817 39.0278C53.5544 39.0278 50.3504 34.926 51.0978 29.5206C51.8453 24.1153 56.2616 20.0179 61.389 20.0179C64.0233 20.0179 66.0879 21.1574 67.3139 23.0442L68.7359 12.9673H72.7056ZM66.3249 29.8624L66.4297 29.2244C66.7168 26.1616 64.6887 23.8464 61.5895 23.8464C60.0201 23.8648 58.5096 24.4465 57.3334 25.4856C56.1571 26.5247 55.3934 27.9518 55.1815 29.5069C54.753 32.6973 56.7857 35.1675 59.9898 35.1675C61.4964 35.1525 62.9512 34.6156 64.1063 33.6483C65.2615 32.6809 66.0455 31.343 66.3249 29.8624Z" fill="white"/>
<path d="M94.6733 20.4419L92.1119 38.5995H88.124L88.4795 36.0017C87.6199 36.9525 86.5708 37.713 85.3997 38.2342C84.2286 38.7554 82.9614 39.0258 81.6795 39.028C76.5522 39.028 73.3482 34.9261 74.0956 29.5207C74.8431 24.1154 79.2594 20.0181 84.3868 20.0181C87.0575 20.0181 89.0857 21.1575 90.3117 23.0443L90.6672 20.4419H94.6733ZM89.4047 29.6301V29.5207C89.8331 26.3304 87.805 23.8602 84.601 23.8602C83.0282 23.8733 81.5128 24.4527 80.3325 25.4924C79.1523 26.532 78.3862 27.9622 78.1747 29.5207C77.7463 32.7111 79.7744 35.1813 82.9784 35.1813C84.5319 35.1611 86.0283 34.5932 87.2039 33.5777C88.3796 32.5621 89.159 31.1641 89.4047 29.6301Z" fill="white"/>
<path d="M97.5903 31.3709L99.1217 20.4326H103.11L101.651 30.8286C101.296 33.4264 102.791 35.172 105.425 35.172C106.651 35.2153 107.848 34.7907 108.773 33.9841C109.698 33.1776 110.282 32.0495 110.406 30.8286L111.901 20.4417H115.889L114.326 31.3801C113.683 36.0106 109.91 39.0369 104.892 39.0369C99.8737 39.0369 96.9522 36.0015 97.5903 31.3709Z" fill="white"/>
<path d="M137.852 17.8442L137.356 21.5496H136.057C135.562 21.521 135.072 21.6595 134.665 21.9431C134.258 22.2266 133.959 22.6386 133.814 23.1129C134.735 24.5487 135.089 26.2754 134.808 27.9576C134.17 32.4788 130.041 35.8925 125.269 35.8925C124.138 35.9025 123.015 35.6983 121.96 35.2909C121.638 35.4686 121.361 35.7181 121.151 36.02C120.94 36.3219 120.803 36.6681 120.748 37.0319C120.606 38.0665 121.354 38.7775 122.634 38.7775H128.865C132.388 38.7775 134.63 40.7372 134.703 43.9413L130.433 45.0442C130.537 43.5858 129.398 42.656 127.621 42.656H121.372C118.132 42.656 116.245 40.7737 116.637 38.03C116.769 37.1253 117.104 36.2621 117.615 35.5039C118.126 34.7458 118.801 34.1123 119.59 33.6501C118.905 32.8865 118.402 31.9776 118.119 30.9917C117.835 30.0057 117.779 28.9684 117.954 27.9576C118.596 23.4365 122.726 20.0182 127.525 20.0182C128.909 20 130.276 20.3307 131.499 20.9799C132.247 19.0566 134.06 17.8442 136.376 17.8442H137.852ZM126.996 23.7692C125.812 23.7506 124.66 24.1627 123.757 24.9288C122.853 25.695 122.258 26.7632 122.083 27.9348C121.727 30.282 123.327 32.096 125.82 32.096C126.999 32.0968 128.141 31.679 129.04 30.9169C129.94 30.1548 130.54 29.098 130.733 27.9348C131.043 25.5694 129.453 23.792 126.996 23.792V23.7692Z" fill="white"/>
<path d="M140.022 20.4417H144.01L141.448 38.5993H137.46L140.022 20.4417ZM140.236 14.854C140.343 14.1546 140.696 13.5162 141.232 13.0535C141.767 12.5908 142.45 12.3339 143.157 12.3291C143.481 12.307 143.806 12.3601 144.106 12.4842C144.406 12.6083 144.673 12.8 144.887 13.0445C145.1 13.289 145.254 13.5795 145.337 13.8934C145.42 14.2073 145.429 14.5361 145.363 14.854C145.256 15.5532 144.904 16.1915 144.37 16.6549C143.835 17.1183 143.154 17.3765 142.447 17.3835C142.124 17.4001 141.801 17.3432 141.503 17.2171C141.205 17.091 140.94 16.8989 140.727 16.6554C140.514 16.4118 140.36 16.1232 140.275 15.8112C140.19 15.4991 140.176 15.1719 140.236 14.854Z" fill="white"/>
<path d="M167.008 20.4419L164.446 38.5995H160.458L160.814 36.0017C159.954 36.9525 158.905 37.713 157.734 38.2342C156.563 38.7554 155.296 39.0258 154.014 39.028C148.886 39.028 145.682 34.9261 146.43 29.5207C147.177 24.1154 151.594 20.0181 156.721 20.0181C159.392 20.0181 161.42 21.1575 162.646 23.0443L163.001 20.4419H167.008ZM161.739 29.6301V29.5207C162.167 26.3304 160.139 23.8602 156.935 23.8602C155.366 23.8776 153.855 24.4591 152.678 25.4983C151.502 26.5375 150.738 27.9652 150.527 29.5207C150.099 32.7111 152.127 35.1813 155.331 35.1813C156.881 35.1569 158.373 34.5871 159.545 33.5719C160.717 32.5567 161.494 31.1611 161.739 29.6301Z" fill="white"/>
<path d="M168.717 36.0702C168.837 35.2856 169.233 34.5693 169.832 34.0486C170.431 33.5278 171.195 33.2365 171.989 33.2263C172.35 33.211 172.71 33.2775 173.042 33.4209C173.374 33.5643 173.669 33.7808 173.905 34.0544C174.141 34.3279 174.313 34.6513 174.406 35.0004C174.5 35.3495 174.513 35.7152 174.446 36.0702C174.324 36.8522 173.928 37.5652 173.328 38.0815C172.729 38.5977 171.965 38.8832 171.173 38.8869C170.814 38.9057 170.455 38.8425 170.123 38.7021C169.791 38.5617 169.496 38.3477 169.26 38.0763C169.023 37.805 168.851 37.4834 168.757 37.1358C168.663 36.7883 168.649 36.4239 168.717 36.0702Z" fill="#FCB715"/>
<path d="M180.535 20.4417H184.523L181.957 38.5993H177.987L180.535 20.4417ZM180.749 14.854C180.855 14.1549 181.207 13.5167 181.742 13.0539C182.277 12.5911 182.959 12.3341 183.666 12.3291C183.99 12.307 184.314 12.3601 184.614 12.4842C184.914 12.6083 185.181 12.8 185.395 13.0445C185.609 13.289 185.763 13.5795 185.845 13.8934C185.928 14.2073 185.937 14.5361 185.872 14.854C185.766 15.5536 185.414 16.1924 184.879 16.656C184.345 17.1195 183.662 17.3775 182.955 17.3835C182.632 17.3994 182.31 17.342 182.013 17.2155C181.716 17.0891 181.451 16.8969 181.239 16.6535C181.027 16.41 180.872 16.1217 180.787 15.81C180.702 15.4983 180.689 15.1715 180.749 14.854Z" fill="#FCB715"/>
<path d="M186.87 29.5208C187.269 26.8725 188.606 24.4558 190.639 22.7114C192.671 20.967 195.262 20.0112 197.94 20.0181C203.46 20.0181 207.056 24.12 206.308 29.5208C205.905 32.1675 204.566 34.582 202.535 36.3263C200.504 38.0706 197.915 39.0291 195.238 39.028C189.682 39.028 186.122 34.9352 186.87 29.5208ZM202.179 29.5208C202.635 26.3304 200.611 23.8602 197.371 23.8602C195.803 23.8842 194.295 24.4679 193.12 25.506C191.945 26.544 191.18 27.968 190.963 29.5208C190.539 32.7111 192.567 35.1814 195.771 35.1814C197.342 35.1686 198.855 34.5888 200.033 33.5487C201.21 32.5086 201.972 31.0782 202.179 29.5208Z" fill="#FCB715"/>
<path fill-rule="evenodd" clip-rule="evenodd" d="M16.9542 3.54818C16.5378 3.30779 16.0054 3.45045 15.7651 3.8668L3.54832 25.0268C3.30794 25.4432 3.45059 25.9756 3.86695 26.216L7.42717 28.2714C7.84353 28.5118 8.37592 28.3692 8.6163 27.9528L20.833 6.79281C21.0734 6.37645 20.9308 5.84405 20.5144 5.60367L16.9542 3.54818ZM13.7915 2.7274C14.6612 1.2211 16.5873 0.705 18.0936 1.57466L21.6538 3.63016C23.1601 4.49982 23.6762 6.42592 22.8066 7.93221L10.5898 29.0922C9.72016 30.5985 7.79406 31.1146 6.28776 30.245L2.72754 28.1895C1.22124 27.3198 0.705146 25.3937 1.57481 23.8874L13.7915 2.7274Z" fill="#FCB715"/>
<path fill-rule="evenodd" clip-rule="evenodd" d="M38.0765 15.7401C37.6602 15.4997 37.1278 15.6423 36.8874 16.0587L24.6706 37.2187C24.4303 37.6351 24.5729 38.1675 24.9893 38.4078L28.5495 40.4633C28.9658 40.7037 29.4982 40.5611 29.7386 40.1447L41.9554 18.9847C42.1957 18.5683 42.0531 18.0359 41.6367 17.7956L38.0765 15.7401ZM34.9139 14.9193C35.7835 13.413 37.7096 12.8969 39.2159 13.7666L42.7761 15.8221C44.2824 16.6917 44.7985 18.6178 43.9289 20.1241L31.7121 41.2841C30.8425 42.7904 28.9164 43.3065 27.4101 42.4369L23.8499 40.3814C22.3436 39.5117 21.8275 37.5856 22.6971 36.0793L34.9139 14.9193Z" fill="#FCB715"/>
<path fill-rule="evenodd" clip-rule="evenodd" d="M23.4496 16.6868C23.0332 16.4465 22.5008 16.5891 22.2604 17.0055L5.97827 45.207C5.73789 45.6233 5.88054 46.1557 6.2969 46.3961L9.85712 48.4516C10.2735 48.692 10.8059 48.5493 11.0463 48.133L27.3284 19.9315C27.5688 19.5151 27.4261 18.9827 27.0098 18.7423L23.4496 16.6868ZM20.2869 15.8661C21.1566 14.3598 23.0827 13.8437 24.589 14.7133L28.1492 16.7688C29.6555 17.6385 30.1716 19.5646 29.3019 21.0709L13.0198 49.2724C12.1501 50.7787 10.224 51.2948 8.71771 50.4251L5.15749 48.3696C3.65119 47.5 3.1351 45.5739 4.00476 44.0676L20.2869 15.8661Z" fill="#FCB715"/>
</svg>
