<svg width="22" height="22" viewBox="0 0 22 22" fill="none" xmlns="http://www.w3.org/2000/svg">
<path fill-rule="evenodd" clip-rule="evenodd" d="M21 3.85714L21 18.1429C21 18.9006 20.699 19.6273 20.1632 20.1632C19.6273 20.699 18.9006 21 18.1429 21L3.85714 21C3.09938 21 2.37265 20.699 1.83684 20.1632C1.30102 19.6273 0.999998 18.9006 0.999998 18.1429L0.999999 3.85714C0.999999 3.09938 1.30102 2.37265 1.83684 1.83684C2.37266 1.30102 3.09938 0.999998 3.85714 0.999998L18.1429 0.999999C18.9006 0.999999 19.6273 1.30102 20.1632 1.83684C20.699 2.37266 21 3.09938 21 3.85714V3.85714Z" stroke="white" stroke-linecap="round" stroke-linejoin="round"/>
<path fill-rule="evenodd" clip-rule="evenodd" d="M18.1429 3.85714L18.1429 18.1429C18.1429 18.9006 17.8418 19.6273 17.306 20.1632C16.7702 20.699 16.0435 21 15.2857 21L18.1429 21C19.5714 21 21 19.7214 21 18.1429L21 3.85714C21 2.27857 19.5714 1 18.1429 1L15.2857 1C16.0435 1 16.7702 1.30102 17.306 1.83684C17.8418 2.37266 18.1429 3.09938 18.1429 3.85714Z" fill="white" stroke="white" stroke-linecap="round" stroke-linejoin="round"/>
<path d="M11.0002 6.71421L15.2859 10.9999L11.0002 15.2856" stroke="white" stroke-linecap="round" stroke-linejoin="round"/>
<path d="M3.85732 11L15.2859 11" stroke="white" stroke-linecap="round" stroke-linejoin="round"/>
</svg>
