<svg width="18" height="18" viewBox="0 0 18 18" fill="none" xmlns="http://www.w3.org/2000/svg">
<path fill-rule="evenodd" clip-rule="evenodd" d="M1.11627 14.7143V3.28571C1.11627 2.6795 1.35709 2.09812 1.78574 1.66947C2.2144 1.24082 2.79578 1 3.40199 1H14.8306C15.4368 1 16.0181 1.24082 16.4468 1.66947C16.8755 2.09812 17.1163 2.6795 17.1163 3.28571V14.7143C17.1163 15.3205 16.8755 15.9019 16.4468 16.3305C16.0181 16.7592 15.4368 17 14.8306 17H3.40199C2.79578 17 2.2144 16.7592 1.78574 16.3305C1.35709 15.9019 1.11627 15.3205 1.11627 14.7143V14.7143Z" stroke="white" stroke-linecap="round" stroke-linejoin="round"/>
<path fill-rule="evenodd" clip-rule="evenodd" d="M3.40199 14.7143V3.28571C3.40199 2.6795 3.6428 2.09812 4.07146 1.66947C4.50011 1.24082 5.08149 1 5.6877 1H3.40199C2.25913 1 1.11627 2.02286 1.11627 3.28571V14.7143C1.11627 15.9771 2.25913 17 3.40199 17H5.6877C5.08149 17 4.50011 16.7592 4.07146 16.3305C3.6428 15.9019 3.40199 15.3205 3.40199 14.7143Z" fill="white" stroke="white" stroke-linecap="round" stroke-linejoin="round"/>
<path d="M9.11625 12.4287L5.68768 9.0001L9.11625 5.57153" stroke="white" stroke-linecap="round" stroke-linejoin="round"/>
<path d="M14.8305 9H5.68768" stroke="white" stroke-linecap="round" stroke-linejoin="round"/>
</svg>
