<svg width="19" height="20" viewBox="0 0 19 20" fill="none" xmlns="http://www.w3.org/2000/svg">
<path d="M2.00293 20.0002H16.0029C17.1059 20.0002 18.0029 19.1032 18.0029 18.0002V9.0002C18.0031 8.86887 17.9772 8.7388 17.927 8.61747C17.8767 8.49614 17.8029 8.38594 17.7099 8.2932L9.70993 0.293201C9.61714 0.200255 9.50694 0.126518 9.38562 0.0762068C9.26431 0.0258961 9.13426 0 9.00293 0C8.8716 0 8.74155 0.0258961 8.62024 0.0762068C8.49892 0.126518 8.38872 0.200255 8.29593 0.293201L0.29593 8.2932C0.202932 8.38594 0.129173 8.49614 0.0788913 8.61747C0.0286092 8.7388 0.00279455 8.86887 0.00293022 9.0002V18.0002C0.00293022 19.1032 0.89993 20.0002 2.00293 20.0002ZM7.00293 18.0002V13.0002H11.0029V18.0002H7.00293ZM2.00293 9.4142L9.00293 2.4142L16.0029 9.4142L16.0039 18.0002H13.0029V13.0002C13.0029 11.8972 12.1059 11.0002 11.0029 11.0002H7.00293C5.89993 11.0002 5.00293 11.8972 5.00293 13.0002V18.0002H2.00293V9.4142Z" fill="white"/>
</svg>
