<svg width="12" height="12" viewBox="0 0 12 12" fill="none" xmlns="http://www.w3.org/2000/svg">
<path fill-rule="evenodd" clip-rule="evenodd" d="M8.18163 4.36375C8.18163 4.94242 7.95175 5.49739 7.54257 5.90657C7.13339 6.31575 6.57842 6.54563 5.99975 6.54563C5.42108 6.54563 4.86611 6.31575 4.45693 5.90657C4.04775 5.49739 3.81787 4.94242 3.81787 4.36375C3.81787 3.78508 4.04775 3.23011 4.45693 2.82093C4.86611 2.41175 5.42108 2.18187 5.99975 2.18187C6.57842 2.18187 7.13339 2.41175 7.54257 2.82093C7.95175 3.23011 8.18163 3.78508 8.18163 4.36375ZM7.09069 4.36375C7.09069 4.65308 6.97575 4.93057 6.77116 5.13516C6.56657 5.33975 6.28908 5.45469 5.99975 5.45469C5.71041 5.45469 5.43293 5.33975 5.22834 5.13516C5.02375 4.93057 4.90881 4.65308 4.90881 4.36375C4.90881 4.07441 5.02375 3.79693 5.22834 3.59234C5.43293 3.38775 5.71041 3.27281 5.99975 3.27281C6.28908 3.27281 6.56657 3.38775 6.77116 3.59234C6.97575 3.79693 7.09069 4.07441 7.09069 4.36375Z" fill="#403946"/>
<path fill-rule="evenodd" clip-rule="evenodd" d="M6.00016 0C2.68644 0 0 2.68644 0 6.00016C0 9.31389 2.68644 12.0003 6.00016 12.0003C9.31389 12.0003 12.0003 9.31389 12.0003 6.00016C12.0003 2.68644 9.31389 0 6.00016 0ZM1.09094 6.00016C1.09094 7.14019 1.47986 8.18968 2.13169 9.02315C2.58947 8.42199 3.18003 7.9348 3.85725 7.59965C4.53447 7.26449 5.28 7.09045 6.03562 7.0911C6.78145 7.09039 7.51761 7.25994 8.188 7.58681C8.85839 7.91369 9.44533 8.38928 9.90409 8.97733C10.3767 8.35746 10.6949 7.63396 10.8324 6.86669C10.9699 6.09942 10.9227 5.31044 10.6947 4.56502C10.4668 3.81961 10.0646 3.1392 9.52143 2.58009C8.97829 2.02098 8.30982 1.59924 7.57132 1.34977C6.83283 1.1003 6.04554 1.03027 5.27461 1.14547C4.50368 1.26067 3.77126 1.5578 3.13796 2.01227C2.50466 2.46673 1.98868 3.06547 1.63271 3.75894C1.27675 4.4524 1.09104 5.22067 1.09094 6.00016ZM6.00016 10.9094C4.8732 10.9111 3.78025 10.5234 2.90626 9.8119C3.25805 9.30829 3.72629 8.89711 4.27113 8.61333C4.81597 8.32956 5.4213 8.1816 6.03562 8.18204C6.64227 8.18155 7.24028 8.32581 7.77999 8.60283C8.3197 8.87984 8.78553 9.28163 9.13879 9.77481C8.25802 10.5094 7.14706 10.911 6.00016 10.9094Z" fill="#403946"/>
</svg>
